<?xml version="1.0" standalone="no"?>
<!DOCTYPE svg PUBLIC "-//W3C//DTD SVG 20010904//EN"
 "http://www.w3.org/TR/2001/REC-SVG-20010904/DTD/svg10.dtd">
<svg version="1.0" xmlns="http://www.w3.org/2000/svg"
 width="696.000000pt" height="626.000000pt" viewBox="0 0 696.000000 626.000000"
 preserveAspectRatio="xMidYMid meet">

<g transform="translate(0.000000,626.000000) scale(0.100000,-0.100000)"
fill="#000000" stroke="none">
<path d="M0 3130 l0 -3130 3480 0 3480 0 0 3130 0 3130 -3480 0 -3480 0 0
-3130z m5575 3021 c47 -22 89 -64 104 -104 8 -20 11 -682 11 -2172 l0 -2144
33 6 c61 11 152 45 200 74 26 16 50 29 53 29 22 0 133 93 177 148 83 103 109
129 150 151 43 24 114 27 167 6 l35 -13 -61 -1 c-76 -1 -133 -27 -156 -73 -55
-109 -29 -136 186 -199 116 -34 182 -79 252 -173 21 -28 51 -66 66 -84 16 -19
28 -44 28 -60 -1 -26 -1 -25 -18 10 -26 56 -225 209 -314 242 -74 28 -98 32
-98 17 0 -13 16 -23 75 -43 52 -19 97 -58 216 -189 47 -52 71 -88 75 -110 6
-34 6 -34 -8 -9 -8 14 -41 50 -73 80 -33 30 -71 67 -86 81 -15 14 -40 34 -55
44 -32 22 -162 75 -181 75 -29 0 -10 -31 35 -57 136 -78 203 -148 201 -210 0
-26 -1 -26 -9 -7 -12 30 -79 97 -126 126 -118 75 -182 94 -131 39 59 -63 107
-144 106 -180 l-1 -36 -10 35 c-7 24 -38 62 -97 120 -49 47 -101 103 -116 125
-79 110 -108 119 -170 54 -22 -22 -60 -52 -85 -66 -25 -15 -56 -36 -70 -48
-14 -12 -62 -46 -107 -74 l-83 -53 -2 -642 -3 -642 -24 -35 c-13 -19 -40 -46
-60 -60 l-36 -24 -2146 0 -2146 0 -41 29 c-23 16 -50 46 -62 70 -19 41 -20 59
-20 692 l0 650 -27 20 c-16 11 -73 51 -128 88 -55 38 -120 88 -145 112 -70 67
-96 60 -175 -51 -15 -22 -67 -78 -116 -125 -59 -58 -90 -96 -97 -120 l-10 -35
-1 36 c-1 36 47 117 106 180 54 58 -21 33 -143 -47 -28 -19 -68 -58 -88 -86
-33 -48 -36 -50 -36 -25 0 63 67 132 202 210 45 26 64 57 36 57 -20 0 -150
-53 -181 -74 -43 -29 -188 -168 -209 -201 l-20 -30 6 34 c4 22 28 58 75 110
119 131 164 170 216 189 59 20 75 30 75 43 0 15 -24 11 -98 -17 -89 -33 -288
-186 -314 -242 -17 -35 -17 -36 -18 -10 0 16 12 41 28 60 15 18 45 56 66 84
70 94 136 139 252 173 179 52 220 79 209 135 -18 93 -75 135 -179 137 l-61 1
35 13 c53 21 124 18 167 -6 41 -22 67 -48 150 -151 29 -37 79 -85 111 -106 55
-36 71 -44 137 -72 31 -13 166 -60 172 -60 2 0 3 956 3 2125 0 2312 -4 2159
56 2219 59 59 -91 55 2209 55 2043 1 2121 0 2160 -18z"/>
<path d="M1272 6100 c-18 -11 -41 -34 -52 -52 -20 -33 -20 -55 -20 -2165 l0
-2132 30 -16 c16 -8 36 -15 44 -15 13 0 107 -34 171 -61 11 -5 55 -20 98 -34
44 -14 93 -37 111 -50 18 -14 36 -25 40 -25 4 0 51 -32 103 -71 70 -53 100
-83 116 -115 l21 -43 23 25 c13 14 35 49 49 77 56 110 176 240 265 286 23 13
61 38 83 57 65 56 136 36 136 -39 0 -75 -166 -385 -261 -488 -13 -14 -37 -45
-54 -69 -16 -24 -63 -79 -103 -123 -42 -46 -76 -92 -79 -108 -7 -36 -26 -37
-49 -2 -35 54 -110 126 -204 196 -52 39 -108 83 -125 98 -16 15 -52 43 -80 61
-27 19 -114 78 -193 132 l-142 97 2 -644 3 -645 25 -27 c55 -59 -105 -55 2190
-55 2295 0 2135 -4 2190 55 l25 27 3 622 2 623 -125 -62 c-68 -35 -145 -78
-169 -96 -136 -103 -168 -131 -246 -209 -76 -76 -149 -171 -166 -214 -9 -24
-21 -19 -33 14 -5 17 -45 65 -88 108 -79 78 -92 88 -150 117 -59 31 -157 137
-206 224 -26 47 -50 96 -53 110 -4 14 -26 66 -50 115 -54 108 -55 137 -10 182
46 46 74 45 112 -5 64 -86 152 -179 219 -229 85 -64 183 -153 224 -206 18 -22
31 -32 31 -23 0 18 82 132 119 165 24 21 73 56 126 89 54 34 94 51 134 58 24
4 91 24 150 45 58 20 123 40 144 44 l37 7 0 2153 0 2153 -23 34 c-12 19 -38
42 -57 51 -33 17 -156 18 -2145 18 -2088 0 -2110 0 -2143 -20z m604 -255 c10
-47 22 -85 26 -85 5 0 8 -8 8 -17 0 -20 35 -140 56 -193 7 -19 18 -55 23 -80
6 -25 31 -96 56 -159 25 -63 45 -116 45 -118 0 -2 -36 -3 -80 -3 -74 0 -80 1
-84 23 -3 12 -13 58 -23 102 -10 44 -17 87 -16 96 2 13 -14 16 -106 18 l-107
2 -12 -63 c-6 -35 -16 -64 -22 -66 -5 -2 -10 -11 -10 -20 0 -9 -5 -34 -11 -54
l-10 -38 -56 0 -55 0 6 33 c4 23 3 28 -4 17 -5 -8 -10 -23 -10 -32 0 -10 -4
-18 -10 -18 -17 0 -8 51 20 115 5 11 16 43 23 70 8 28 24 68 36 90 11 22 21
48 21 57 0 28 31 98 41 92 5 -3 6 2 3 11 -7 18 27 175 38 175 4 0 12 26 18 58
7 31 14 60 16 63 2 4 39 7 82 8 l79 2 19 -86z m3424 20 c0 -9 -17 -42 -37 -73
-21 -31 -46 -75 -57 -97 -10 -22 -31 -58 -46 -80 -15 -22 -29 -49 -33 -60 -13
-48 -47 -129 -60 -144 -42 -48 -101 -247 -68 -227 6 4 11 2 11 -3 0 -28 20 -4
50 60 28 61 31 74 21 91 -10 16 -10 23 3 37 9 10 16 24 16 32 0 8 25 44 55 79
30 36 55 69 55 74 0 17 33 46 51 46 10 0 23 8 29 18 8 13 9 8 4 -23 -9 -48
-24 -83 -69 -155 -19 -30 -35 -63 -35 -72 0 -9 -4 -19 -9 -23 -6 -3 -20 -38
-32 -78 -12 -39 -26 -77 -31 -83 -4 -6 -9 -29 -11 -50 -1 -22 -6 -42 -12 -46
-12 -9 17 -11 39 -2 8 3 51 46 95 95 55 60 84 101 91 129 13 48 35 55 25 8
-11 -55 -52 -137 -113 -226 -48 -71 -69 -92 -137 -136 -83 -54 -126 -93 -172
-153 -26 -34 -26 -35 -15 -116 6 -48 7 -83 1 -85 -5 -2 -1 -18 8 -35 10 -19
18 -27 21 -19 2 8 20 -19 39 -60 19 -40 45 -86 56 -103 12 -16 36 -64 53 -105
83 -199 126 -304 165 -402 23 -59 46 -105 50 -102 17 10 57 -140 89 -336 28
-175 32 -212 18 -204 -14 9 -5 -96 11 -123 9 -15 11 -11 12 22 1 47 30 -94 55
-270 22 -156 37 -205 79 -245 19 -19 35 -39 35 -45 0 -6 -16 -27 -36 -46 -42
-39 -109 -139 -155 -231 -32 -64 -70 -111 -103 -130 -14 -7 -17 -7 -11 2 4 7
-5 5 -24 -4 -17 -9 -35 -25 -41 -35 -5 -11 -25 -30 -42 -42 -22 -16 -28 -17
-19 -6 18 23 5 21 -49 -8 -39 -22 -41 -24 -15 -19 l30 5 -29 -17 c-16 -9 -42
-20 -58 -25 -25 -7 -28 -6 -18 6 7 8 19 15 28 15 8 0 12 3 9 7 -10 9 -87 -28
-114 -55 -14 -14 -30 -21 -39 -18 -9 3 -12 1 -9 -4 6 -9 2 -12 -27 -14 -7 -1
-19 -7 -26 -14 -7 -6 -18 -12 -23 -12 -13 0 -11 18 4 23 16 6 -25 -2 -98 -18
l-60 -13 50 -2 50 -2 -45 -10 c-25 -6 -63 -16 -85 -24 l-40 -15 25 22 c20 17
21 20 5 14 -23 -9 -87 -24 -130 -31 -129 -23 -278 -178 -236 -246 14 -22 14
-75 1 -83 -5 -3 -10 -30 -10 -58 -1 -29 -8 -70 -16 -92 -9 -22 -20 -61 -24
-88 -6 -32 -19 -57 -39 -78 -25 -25 -31 -39 -32 -77 -1 -26 -5 -58 -9 -72 -7
-19 -8 -15 -5 19 3 39 2 42 -11 29 -9 -8 -18 -35 -21 -59 -3 -24 -10 -49 -15
-56 -6 -7 -12 -49 -15 -94 -5 -69 -8 -79 -18 -65 -12 16 -15 16 -49 -3 -21
-12 -52 -20 -75 -19 -53 2 -61 -6 -62 -65 -1 -29 -4 -41 -6 -27 -7 45 -24 90
-34 90 -5 0 -9 -25 -9 -55 0 -30 -4 -55 -10 -55 -5 0 -10 22 -10 49 l0 48 -72
-1 c-40 0 -61 -2 -45 -4 l27 -3 -1 -112 -2 -112 -7 93 c-5 51 -14 100 -21 108
-11 14 -33 15 -159 10 -208 -10 -200 -7 -201 -69 -1 -44 -3 -47 -8 -22 -6 24
-9 13 -15 -50 -11 -119 -16 -115 -10 7 6 93 4 109 -10 114 -9 3 -14 9 -12 13
2 3 -19 6 -47 6 -29 1 -90 7 -137 14 -47 7 -113 15 -147 18 l-63 6 -1 -29 -2
-29 -4 28 c-6 37 -21 34 -26 -6 l-4 -32 -1 37 c-2 30 -6 36 -22 35 -11 -1 -20
-6 -20 -11 0 -5 -3 -6 -6 -3 -4 4 -1 14 6 23 11 12 11 17 2 23 -9 5 -6 13 8
29 17 18 19 26 10 42 -15 28 -22 25 -14 -7 6 -21 4 -25 -9 -20 -10 4 -14 0
-12 -11 1 -9 -1 -21 -5 -27 -4 -5 -10 -19 -12 -30 -3 -11 -5 8 -6 42 0 34 -6
71 -11 81 -6 11 -7 22 -3 26 3 4 0 11 -8 16 -10 6 -11 12 -2 22 7 8 7 19 2 28
-11 18 -15 14 -28 -35 -6 -25 -10 -32 -11 -17 -1 12 -5 22 -11 22 -5 0 -10 11
-10 24 0 31 -26 55 -33 29 -4 -14 -5 -13 -6 5 0 13 -17 53 -36 89 -38 72 -41
84 -23 112 9 15 9 25 0 46 -8 17 -10 45 -6 76 4 31 2 60 -6 79 -10 25 -10 38
0 71 10 30 11 44 2 62 -7 12 -21 51 -32 87 -24 79 -45 97 -150 128 -58 17 -89
20 -134 15 -41 -4 -57 -3 -53 5 5 7 -25 12 -90 15 -54 3 -111 8 -127 12 -22 6
-27 5 -21 -5 8 -14 -30 -11 -134 10 -61 11 -76 20 -40 21 18 1 13 4 -18 14
-74 23 -113 46 -113 66 0 11 -13 25 -31 34 -16 9 -34 26 -39 38 -8 21 -9 21
-9 2 -1 -12 4 -26 11 -33 9 -9 5 -9 -15 0 -14 7 -32 23 -38 36 -8 15 -15 18
-20 11 -4 -8 -11 -5 -18 9 -6 12 -21 32 -34 46 -81 88 -97 107 -97 116 0 6
-12 15 -26 21 -15 5 -24 12 -21 15 7 7 -67 84 -81 84 -24 0 -22 22 7 58 36 46
101 170 101 194 0 27 22 75 27 60 4 -10 11 -5 24 15 25 38 24 54 -2 23 l-21
-25 6 39 c3 21 12 46 21 56 8 9 12 19 9 22 -3 4 4 37 15 74 14 47 17 73 11 85
-13 23 -13 66 0 74 6 4 10 -9 10 -33 0 -45 8 -56 27 -41 15 13 18 33 3 24 -5
-3 2 17 16 45 28 55 40 64 30 23 -5 -21 -4 -24 4 -13 5 8 10 30 10 49 0 21 14
56 38 95 20 33 42 69 47 78 6 10 45 67 88 128 105 150 129 242 84 325 -18 34
-23 26 -6 -8 9 -18 6 -16 -20 7 -29 28 -43 55 -21 41 6 -3 7 1 4 9 -9 24 -95
67 -124 63 -21 -3 -20 -4 7 -6 35 -1 53 -18 30 -27 -26 -10 -72 23 -152 108
-91 97 -174 248 -136 248 5 0 14 -15 20 -33 6 -18 32 -53 58 -78 26 -24 40
-35 30 -23 -23 28 -22 38 3 17 11 -10 20 -25 20 -35 0 -9 5 -20 10 -23 6 -4 7
-12 4 -18 -4 -7 -4 -9 1 -5 4 4 23 -4 42 -17 33 -22 63 -24 63 -4 0 5 -8 28
-19 52 -10 23 -24 58 -31 77 -11 31 -74 143 -130 235 -10 17 -21 46 -25 65 -6
33 -4 31 34 -25 22 -34 57 -81 78 -105 63 -73 111 -144 138 -203 24 -51 48
-76 59 -59 10 16 -22 139 -47 182 -15 25 -27 51 -27 59 0 8 -30 59 -67 114
-83 120 -113 175 -113 202 1 15 4 13 14 -10 7 -17 28 -44 47 -61 45 -39 176
-195 222 -263 39 -56 42 -64 52 -144 7 -55 28 -60 33 -7 4 39 -23 169 -44 208
-7 15 -14 33 -14 41 0 7 -9 21 -19 30 -31 27 -111 152 -111 173 0 13 25 -9 76
-69 41 -48 84 -98 95 -109 10 -12 19 -29 19 -38 0 -9 5 -16 10 -16 6 0 10 -9
10 -19 0 -11 5 -21 11 -23 5 -2 13 -24 16 -48 3 -25 10 -47 14 -50 5 -3 9 -29
10 -58 2 -53 7 -60 26 -41 8 8 13 5 18 -11 5 -16 1 -26 -14 -37 -21 -14 -20
-40 1 -27 7 4 8 2 4 -4 -8 -14 26 -49 59 -62 39 -15 113 4 142 35 14 14 22 29
19 32 -3 4 1 15 11 25 15 17 15 18 -6 18 -12 0 -19 4 -16 10 3 6 15 10 25 10
19 0 21 -14 6 -38 -15 -24 4 -26 24 -2 25 28 25 36 3 50 -16 10 -15 11 4 7 16
-4 24 1 29 17 7 24 33 56 46 56 13 0 9 -34 -7 -56 -8 -10 -15 -25 -15 -33 -1
-49 -134 -245 -177 -262 -13 -5 -49 -32 -79 -61 -58 -54 -88 -108 -119 -213
-30 -103 -50 -150 -107 -260 -24 -45 -38 -97 -38 -138 0 -20 -3 -37 -7 -37 -5
0 -7 -21 -5 -47 3 -55 -29 -188 -45 -188 -6 0 -15 -3 -19 -8 -4 -4 -3 -7 3 -7
6 0 9 -9 6 -20 -3 -11 -10 -17 -16 -13 -6 3 -7 1 -3 -5 4 -6 2 -21 -4 -32 -18
-34 -3 -22 20 16 12 19 24 33 26 31 5 -4 -128 -260 -146 -282 -15 -19 -15 -19
35 -39 31 -13 36 -19 25 -26 -12 -8 -11 -10 5 -11 11 -1 27 -1 36 0 8 1 32
-10 53 -24 20 -14 40 -25 44 -25 4 0 21 -16 37 -36 48 -56 154 -70 183 -23 9
15 10 25 1 40 -7 14 -8 24 -1 31 7 7 13 -5 18 -38 14 -99 20 -104 190 -149 12
-3 28 2 41 14 11 11 24 17 27 13 4 -3 16 -7 27 -9 16 -2 18 -1 7 11 -9 10 -15
11 -20 2 -4 -6 -8 -6 -8 -1 0 6 4 16 9 23 6 11 11 10 24 -3 19 -19 53 -16 177
15 47 12 90 22 97 22 7 1 10 5 7 10 -8 13 56 36 124 44 34 3 65 11 68 15 3 5
10 9 15 9 6 0 7 -4 4 -10 -4 -6 4 -6 21 0 20 8 29 8 35 -2 6 -9 14 -9 36 2
l28 14 -55 6 c-53 5 -54 6 -22 14 19 4 68 26 110 47 42 21 81 39 87 39 6 0 19
15 29 34 10 19 34 49 52 68 40 38 51 60 70 143 8 33 19 76 24 95 12 48 18 78
13 62 -3 -7 -10 -12 -16 -11 -30 4 -57 -2 -70 -16 -8 -8 -17 -12 -20 -9 -3 4
-16 -1 -29 -10 -12 -9 -33 -16 -45 -16 -13 0 -23 -4 -23 -9 0 -5 -12 -11 -27
-13 -16 -2 -27 -8 -26 -15 1 -6 -4 -14 -13 -17 -8 -3 -12 -2 -9 4 3 6 -1 10
-10 10 -9 0 -14 -4 -11 -8 2 -4 -4 -8 -15 -8 -21 0 -25 12 -6 19 6 3 -28 5
-78 5 -66 0 -81 -2 -57 -8 18 -4 42 -6 52 -3 10 3 26 1 35 -5 12 -6 -5 -9 -58
-10 -71 -2 -76 0 -72 18 3 17 -2 20 -31 20 -19 0 -34 -4 -34 -10 0 -5 -10 -10
-22 -10 -19 0 -20 -2 -8 -10 8 -5 10 -10 4 -10 -19 0 -37 29 -31 50 3 11 1 23
-4 26 -5 3 -9 0 -9 -6 0 -7 -7 -5 -16 4 -8 9 -20 14 -25 11 -5 -4 -9 0 -10 7
0 7 -5 3 -11 -9 -8 -17 -19 -23 -42 -22 -22 1 -25 3 -11 7 l20 5 -20 8 c-16 6
-14 8 13 8 60 2 32 19 -42 26 -71 6 -76 8 -116 51 -22 24 -37 44 -33 44 5 0
14 -5 21 -12 8 -8 12 -9 12 -1 0 6 -14 18 -31 27 -28 14 -30 14 -25 0 3 -9 2
-12 -5 -9 -6 4 -8 13 -5 21 7 19 -25 83 -42 84 -7 0 -10 5 -7 11 4 6 -2 13
-14 16 -12 3 -21 11 -21 19 0 7 -7 32 -16 54 -16 40 -16 40 -73 41 l-56 1 44
9 c54 10 53 9 54 53 1 36 11 47 20 24 3 -7 6 8 6 33 1 42 -2 47 -25 53 -14 4
-41 4 -61 0 -26 -5 -34 -4 -29 5 4 6 31 11 59 11 37 0 48 3 37 10 -13 8 -12
10 5 11 17 1 17 2 3 6 -22 6 -23 26 -3 43 12 10 15 9 16 -6 1 -45 19 31 22 94
2 43 7 67 14 67 15 0 42 35 43 53 0 10 -9 12 -32 7 l-33 -7 53 53 c28 30 52
57 52 62 0 4 11 12 25 17 14 5 25 16 25 25 0 8 4 15 8 15 5 0 17 16 27 35 14
26 27 35 50 37 20 2 33 11 40 26 5 12 13 22 17 22 5 0 8 7 8 15 0 8 8 15 18
15 9 0 37 20 62 45 25 24 51 44 58 45 6 0 21 9 32 20 17 17 39 26 73 29 4 1 7
9 5 19 -2 9 2 16 9 15 7 -2 10 3 7 10 -3 8 7 19 23 27 l28 14 -29 4 c-16 2
-33 -2 -38 -10 -8 -10 -9 -10 -5 2 2 9 18 16 44 18 30 2 48 11 73 38 19 18 38
34 42 34 5 0 19 11 32 25 13 13 26 22 29 18 4 -3 7 -1 7 5 0 17 39 54 49 47 8
-4 24 31 22 48 -1 4 10 7 24 7 14 0 25 -6 25 -12 0 -7 7 -4 15 7 8 11 23 31
32 44 10 13 24 31 32 39 12 12 12 15 0 24 -11 7 -8 9 9 5 12 -3 20 -1 17 4 -3
4 1 20 10 33 15 22 22 42 24 69 1 5 5 6 9 3 8 -5 50 35 66 63 6 9 -1 7 -20 -4
l-29 -18 30 26 c17 15 36 26 43 27 14 0 17 30 2 30 -5 0 -10 5 -10 10 0 6 6
10 13 10 7 0 18 9 24 20 11 16 10 18 -2 14 -11 -5 -10 7 7 58 11 34 27 71 35
80 14 15 16 15 39 -5 25 -21 33 -57 13 -57 -8 0 -8 -4 0 -14 13 -15 11 -37 -4
-48 -7 -5 -7 -10 0 -15 6 -5 10 -14 11 -20 2 -29 5 -33 24 -33 11 0 20 6 20
13 0 6 5 4 11 -6 6 -9 9 -25 8 -35 -3 -37 0 -45 15 -33 12 10 18 6 32 -18 10
-17 27 -32 39 -32 17 -1 17 -2 3 -6 -22 -6 -24 -33 -2 -33 11 0 14 -5 10 -17
-4 -10 1 -23 14 -35 14 -13 19 -27 16 -41 -3 -12 -3 -16 0 -9 9 19 31 14 37
-9 4 -15 11 -20 22 -16 13 6 14 3 4 -16 -6 -12 -8 -19 -4 -15 8 8 55 -56 55
-76 0 -7 11 -18 25 -24 33 -15 35 -15 35 3 0 8 5 15 11 15 6 0 10 -10 9 -22
-3 -40 11 -66 40 -77 34 -11 73 -48 65 -61 -6 -9 13 -25 30 -25 5 0 12 -11 16
-25 7 -24 7 -24 8 -2 1 12 5 22 11 22 5 0 7 -13 4 -29 -5 -23 -1 -32 17 -45
13 -8 36 -14 50 -12 20 2 25 -1 25 -18 -1 -16 6 -22 27 -24 15 -2 27 -9 27
-18 0 -8 7 -14 15 -14 9 0 18 -7 21 -15 5 -11 16 -13 45 -9 36 6 39 5 39 -18
0 -13 6 -30 13 -38 6 -8 3 -7 -9 3 -11 9 -23 14 -27 11 -3 -3 -3 3 0 15 6 22
-3 26 -32 15 -14 -6 -9 -14 27 -48 24 -23 52 -53 61 -68 10 -16 23 -28 29 -28
6 0 3 9 -7 20 -22 25 -27 47 -13 57 7 3 8 1 4 -5 -3 -6 2 -15 11 -21 13 -7 14
-10 4 -11 -11 0 -10 -5 4 -20 10 -11 14 -20 9 -20 -5 -1 0 -8 11 -18 12 -9 32
-36 45 -59 13 -24 27 -43 32 -43 4 0 8 -7 8 -15 0 -9 11 -20 25 -25 14 -5 25
-13 25 -17 0 -5 24 -32 53 -62 51 -53 52 -53 22 -49 -16 3 -25 3 -19 1 18 -6
47 -80 39 -95 -5 -7 -5 -10 0 -6 14 13 37 -46 36 -92 -2 -61 8 -100 24 -100 8
0 16 -4 19 -9 3 -4 -6 -7 -19 -5 -14 1 -25 -2 -25 -7 0 -5 4 -9 8 -9 4 0 8
-10 9 -22 0 -13 -1 -17 -4 -10 -8 20 -33 14 -33 -9 0 -14 5 -19 14 -16 9 4 16
-3 19 -15 5 -16 3 -18 -6 -9 -15 15 -27 14 -27 -4 0 -10 11 -16 33 -17 l32 -1
-32 -4 c-24 -3 -33 -10 -38 -31 -5 -20 -8 -23 -16 -11 -7 11 -9 10 -9 -5 0
-10 -12 -30 -27 -44 -16 -15 -21 -23 -11 -19 12 4 19 0 23 -14 4 -11 4 -23 1
-26 -3 -4 -6 0 -6 8 0 22 -36 21 -37 -1 -1 -10 5 -17 14 -16 9 0 18 -4 20 -11
4 -12 -39 -9 -59 3 -10 6 -38 -20 -38 -35 0 -6 -11 -13 -25 -17 -33 -8 -32
-28 1 -21 23 4 24 3 10 -11 -12 -12 -20 -13 -39 -5 -26 12 -47 1 -47 -23 0
-16 -28 -26 -54 -18 -12 4 -18 3 -14 -1 10 -10 -11 -37 -23 -29 -5 3 -6 -2 -3
-11 5 -13 0 -15 -29 -13 -37 2 -67 -19 -67 -46 0 -11 -9 -16 -27 -15 l-28 1
25 8 25 8 -27 1 c-16 1 -28 -2 -28 -6 0 -5 -12 -9 -27 -10 -19 -1 -22 1 -12 8
10 6 6 9 -13 9 -16 0 -28 -4 -28 -10 0 -5 -11 -10 -25 -10 -31 0 -33 17 -2 23
25 4 -33 9 -103 9 -73 -1 -80 -3 -80 -18 0 -27 -48 -10 -100 35 -24 22 -36 27
-42 18 -5 -8 -8 -7 -8 4 0 9 -11 21 -25 27 -23 11 -25 10 -27 -16 0 -15 -1
-33 -1 -39 1 -15 -13 -17 -21 -4 -3 4 -7 22 -8 39 -1 17 -6 28 -10 26 -4 -3
-8 2 -8 11 0 9 -4 14 -9 11 -5 -4 -6 -18 -1 -34 5 -15 21 -70 36 -122 35 -120
47 -145 89 -182 19 -16 37 -38 40 -49 5 -14 15 -19 39 -19 20 0 40 -8 50 -19
10 -11 28 -22 41 -25 18 -5 22 -11 17 -28 l-5 -22 -9 23 c-5 15 -14 21 -23 17
-8 -3 -17 -1 -20 4 -4 6 -12 10 -18 9 -9 0 -9 -2 1 -6 6 -2 12 -17 12 -31 0
-21 2 -24 10 -12 8 13 10 12 10 -4 0 -14 5 -17 25 -12 16 4 34 1 48 -9 25 -17
37 -19 37 -5 0 5 -11 12 -25 16 -14 3 -25 10 -25 15 0 9 69 -17 84 -32 6 -5
18 -9 28 -9 10 0 18 -4 18 -8 0 -4 21 -14 48 -21 26 -8 65 -20 87 -27 22 -7
64 -15 94 -19 30 -4 68 -15 85 -24 33 -18 50 -20 62 -9 12 13 24 9 24 -7 0 -8
5 -15 10 -15 14 0 12 23 -2 39 -11 11 -10 12 0 6 7 -4 17 -17 22 -29 7 -19 14
-22 39 -18 17 2 31 0 31 -5 0 -19 149 5 196 31 38 21 45 23 39 8 -23 -58 -18
-59 77 -14 44 21 59 33 63 54 4 16 12 28 20 28 7 0 30 22 50 49 38 49 116 97
156 94 10 -1 19 2 19 7 0 4 35 25 78 46 42 21 105 56 140 78 71 46 69 35 28
156 -14 41 -47 143 -72 225 -26 83 -53 162 -61 177 -7 15 -9 29 -4 32 17 11
-6 96 -36 134 -37 46 -68 133 -52 143 8 5 8 17 -1 45 -16 48 -69 153 -90 175
-33 37 -60 71 -60 77 0 4 -25 75 -55 157 -55 148 -88 290 -115 492 -13 92 -9
130 11 118 6 -4 5 2 -3 14 -12 19 -13 20 -21 3 -5 -12 -6 -11 -3 7 3 12 1 33
-4 45 -5 11 -12 47 -15 79 -4 31 -13 63 -21 71 -8 8 -26 38 -40 66 -31 62 -56
86 -97 94 -33 6 -66 46 -129 155 -27 46 -78 194 -78 226 0 28 24 11 45 -32 17
-35 51 -77 121 -154 31 -34 144 -28 144 7 0 8 4 14 9 14 5 0 11 18 15 39 3 22
10 41 16 43 5 1 12 41 15 88 10 127 50 238 81 226 8 -3 14 0 14 7 0 7 21 39
48 71 52 65 77 101 91 131 14 30 98 121 105 114 3 -3 -2 -17 -13 -30 -10 -13
-38 -60 -61 -104 -24 -44 -48 -87 -55 -95 -6 -8 -16 -26 -23 -40 -7 -14 -16
-32 -21 -40 -26 -41 -43 -92 -57 -176 -17 -102 -15 -162 4 -74 26 129 32 151
49 177 38 60 76 102 98 107 22 6 94 83 108 116 4 8 15 26 24 40 10 13 12 21 6
16 -31 -18 -9 29 33 72 25 26 43 41 39 35 -3 -7 -2 -13 4 -13 5 0 15 14 23 30
14 32 28 40 28 15z m-230 -547 c-1 -10 -59 -121 -60 -113 0 16 44 115 53 115
4 0 7 -1 7 -2z m206 -48 c-23 -35 -46 -52 -46 -34 0 9 64 83 69 78 2 -2 -8
-22 -23 -44z m-3419 -213 c132 -133 163 -167 156 -167 -5 0 -3 -4 2 -8 18 -13
31 -47 34 -88 2 -35 -3 -48 -29 -78 -18 -20 -38 -36 -46 -36 -8 0 -14 -4 -14
-10 0 -13 -67 -13 -72 0 -2 6 -14 12 -27 15 -22 4 -23 2 -18 -28 3 -18 8 -40
12 -49 7 -16 -1 -18 -84 -18 -50 0 -91 2 -91 5 0 12 33 70 44 77 6 4 7 11 2
15 -4 4 -13 0 -20 -10 -9 -11 -27 -17 -50 -17 -41 0 -65 17 -59 40 4 13 3 13
-6 0 -9 -13 -15 -11 -38 14 -15 16 -22 25 -14 21 9 -5 12 -4 7 3 -4 7 -15 12
-25 12 -20 0 -31 26 -31 78 0 22 5 32 15 32 8 0 15 6 15 14 0 8 15 33 33 57
40 53 198 209 212 209 5 0 47 -37 92 -83z m2804 -203 c23 -25 23 -26 2 -13
-13 7 -25 19 -27 26 -8 19 -2 16 25 -13z m-2786 -283 c-8 -14 -185 -15 -185
-1 0 7 176 20 189 13 1 -1 0 -6 -4 -12z m1235 -26 c0 -8 0 -18 1 -22 0 -4 -5
-9 -13 -11 -9 -2 -8 0 2 7 13 9 13 11 -2 11 -11 0 -15 5 -12 15 4 8 10 15 15
15 5 0 9 -7 9 -15z m603 -57 c9 -31 2 -33 -11 -3 -6 14 -8 25 -3 25 5 0 11
-10 14 -22z m47 -68 c0 -5 -4 -10 -10 -10 -5 0 -10 5 -10 10 0 6 5 10 10 10 6
0 10 -4 10 -10z m190 -140 c0 -5 -5 -10 -11 -10 -5 0 -7 5 -4 10 3 6 8 10 11
10 2 0 4 -4 4 -10z m30 -44 c0 -3 -4 -8 -10 -11 -5 -3 -10 -1 -10 4 0 6 5 11
10 11 6 0 10 -2 10 -4z m50 -46 c0 -5 -7 -10 -15 -10 -8 0 -15 -5 -15 -12 0
-6 -2 -9 -5 -6 -3 3 -3 13 1 22 7 17 34 22 34 6z m-2580 -103 c0 -5 -4 -5 -10
-2 -5 3 -10 14 -10 23 0 15 2 15 10 2 5 -8 10 -19 10 -23z m2783 -34 c-7 -2
-19 -2 -25 0 -7 3 -2 5 12 5 14 0 19 -2 13 -5z m-1813 -113 c8 -5 11 -10 5
-10 -5 0 -17 5 -25 10 -8 5 -10 10 -5 10 6 0 17 -5 25 -10z m-715 -142 c24
-11 34 -28 16 -28 -11 0 -59 39 -49 40 4 0 19 -5 33 -12z m435 -438 c0 -5 -4
-10 -10 -10 -5 0 -10 5 -10 10 0 6 5 10 10 10 6 0 10 -4 10 -10z m2427 -282
c-3 -8 -6 -5 -6 6 -1 11 2 17 5 13 3 -3 4 -12 1 -19z m53 -63 c0 -14 -2 -25
-4 -25 -2 0 -6 11 -8 25 -3 14 -1 25 3 25 5 0 9 -11 9 -25z m-330 -171 c0 -3
-7 -12 -15 -21 -20 -19 -32 -9 -15 12 12 15 30 20 30 9z m-1590 -84 c0 -5 -4
-10 -10 -10 -5 0 -10 5 -10 10 0 6 5 10 10 10 6 0 10 -4 10 -10z m1224 2 c3
-5 -20 -9 -49 -10 -30 -1 -55 3 -55 8 0 12 97 13 104 2z m-1937 -354 c-3 -8
-6 -5 -6 6 -1 11 2 17 5 13 3 -3 4 -12 1 -19z m-63 -108 c11 0 17 -3 14 -6
-12 -11 -99 9 -121 27 -21 18 -19 18 33 -1 30 -11 64 -20 74 -20z m2434 -61
c3 -12 2 -12 -6 0 -8 11 -10 11 -15 0 -4 -10 -6 -8 -6 4 -1 21 21 18 27 -4z
m169 -25 c-3 -3 -12 -4 -19 -1 -8 3 -5 6 6 6 11 1 17 -2 13 -5z"/>
<path d="M1706 5888 c-3 -13 -5 -32 -5 -43 1 -11 5 -2 10 19 10 42 6 62 -5 24z"/>
<path d="M1674 5795 c-3 -13 -4 -30 -1 -37 3 -7 6 -1 6 15 1 15 6 27 11 27 6
0 10 5 10 10 0 20 -20 9 -26 -15z"/>
<path d="M1771 5788 c0 -4 -12 -49 -25 -100 -13 -51 -26 -105 -30 -120 l-6
-28 81 0 c70 0 80 2 75 16 -3 9 -6 23 -7 32 0 13 -2 13 -8 -3 -5 -12 -4 -23 3
-28 7 -6 6 -7 -3 -5 -17 5 -64 162 -58 195 2 12 1 20 -4 18 -4 -3 -10 3 -12
12 -3 10 -5 15 -6 11z"/>
<path d="M1656 5714 c-4 -14 -5 -28 -3 -31 3 -2 8 8 11 23 4 14 5 28 3 31 -3
2 -8 -8 -11 -23z"/>
<path d="M1631 5663 c0 -5 4 -17 9 -28 8 -18 9 -17 9 8 1 15 -3 27 -9 27 -5 0
-10 -3 -9 -7z"/>
<path d="M1606 5555 c-3 -9 -6 -26 -5 -38 1 -14 4 -9 9 13 9 37 7 52 -4 25z"/>
<path d="M1905 5380 c-3 -5 -1 -10 4 -10 6 0 11 5 11 10 0 6 -2 10 -4 10 -3 0
-8 -4 -11 -10z"/>
<path d="M1922 5345 c-1 -27 22 -132 29 -140 7 -6 -2 48 -19 120 -6 22 -10 31
-10 20z"/>
<path d="M1525 5320 c3 -5 8 -10 11 -10 2 0 4 5 4 10 0 6 -5 10 -11 10 -5 0
-7 -4 -4 -10z"/>
<path d="M5218 5795 c-25 -34 -22 -43 3 -11 12 15 20 29 18 31 -2 1 -12 -7
-21 -20z"/>
<path d="M5025 5534 c-19 -14 -32 -59 -14 -48 9 5 43 64 37 64 -2 0 -12 -7
-23 -16z"/>
<path d="M5221 5525 c-1 -11 -24 -42 -51 -68 -44 -43 -60 -67 -45 -67 6 0 52
51 87 95 11 14 17 33 15 43 -4 14 -5 14 -6 -3z"/>
<path d="M4976 5464 c-4 -9 -4 -19 -1 -22 2 -3 7 3 11 12 4 9 4 19 1 22 -2 3
-7 -3 -11 -12z"/>
<path d="M4935 5419 c-10 -15 3 -25 16 -12 7 7 7 13 1 17 -6 3 -14 1 -17 -5z"/>
<path d="M3466 4783 c-6 -14 -5 -15 5 -6 7 7 10 15 7 18 -3 3 -9 -2 -12 -12z"/>
<path d="M3520 4701 c0 -5 5 -13 10 -16 6 -3 10 -2 10 4 0 5 -4 13 -10 16 -5
3 -10 2 -10 -4z"/>
<path d="M3620 4521 c0 -5 7 -11 14 -14 10 -4 13 -1 9 9 -6 15 -23 19 -23 5z"/>
<path d="M2899 4303 c-13 -16 -12 -17 4 -4 16 13 21 21 13 21 -2 0 -10 -8 -17
-17z"/>
<path d="M2860 4275 c0 -8 5 -15 10 -15 6 0 10 7 10 15 0 8 -4 15 -10 15 -5 0
-10 -7 -10 -15z"/>
<path d="M2760 4160 c-9 -6 -10 -10 -3 -10 6 0 15 5 18 10 8 12 4 12 -15 0z"/>
<path d="M3066 4037 c17 -15 24 -28 20 -36 -13 -20 -57 -32 -90 -25 l-31 8 30
7 30 7 -33 1 c-18 0 -31 5 -28 10 4 5 -3 7 -14 4 -33 -9 -23 -27 29 -51 71
-32 132 -30 173 7 29 26 30 30 16 44 -19 19 -84 47 -110 47 -17 0 -16 -3 8
-23z"/>
<path d="M1920 4005 c-14 -16 -3 -20 19 -6 8 5 9 11 3 15 -5 3 -15 -1 -22 -9z"/>
<path d="M2529 3993 l-24 -28 28 24 c25 23 32 31 24 31 -2 0 -14 -12 -28 -27z"/>
<path d="M1880 3970 c0 -11 4 -20 8 -20 4 0 8 9 8 20 0 11 -4 20 -8 20 -4 0
-8 -9 -8 -20z"/>
<path d="M1890 3932 c0 -4 9 -13 20 -20 12 -7 20 -8 20 -2 0 5 -5 10 -11 10
-5 0 -7 5 -4 10 3 6 -1 10 -9 10 -9 0 -16 -3 -16 -8z"/>
<path d="M3687 3816 c-33 -14 -61 -27 -63 -29 -10 -9 109 -57 142 -57 40 0
104 24 104 39 0 6 -23 11 -52 12 -39 0 -48 3 -33 9 19 8 19 9 -2 9 -27 1 -30
16 -5 30 36 21 -32 11 -91 -13z"/>
<path d="M3027 3627 c8 -14 -38 -47 -67 -47 -29 0 -66 29 -39 31 9 0 7 3 -4 7
-10 4 -36 6 -58 4 l-41 -4 33 -16 c19 -9 40 -22 47 -29 14 -14 122 -18 122 -5
0 4 16 16 35 26 44 24 44 33 1 38 -19 2 -32 0 -29 -5z"/>
<path d="M3580 3510 c-6 -11 -7 -32 -4 -46 7 -26 8 -26 20 -9 16 22 19 75 4
75 -5 0 -14 -9 -20 -20z"/>
<path d="M3413 3504 c-7 -18 19 -74 33 -74 14 0 24 23 24 55 0 16 -7 24 -26
28 -16 3 -28 0 -31 -9z"/>
<path d="M3505 3498 c-7 -18 9 -71 22 -75 11 -4 23 28 23 65 0 15 -6 22 -20
22 -11 0 -23 -6 -25 -12z"/>
<path d="M3340 3486 c0 -17 45 -66 61 -66 6 0 8 7 5 16 -3 9 -6 19 -6 24 0 14
-30 40 -46 40 -8 0 -14 -6 -14 -14z"/>
<path d="M3643 3480 c-3 -11 -9 -20 -13 -20 -4 0 -10 -9 -13 -20 -3 -11 -1
-20 5 -20 15 0 68 53 68 67 0 21 -41 15 -47 -7z"/>
<path d="M3290 3465 c0 -18 33 -64 54 -79 25 -16 26 -16 26 3 0 10 -14 33 -32
50 -30 29 -48 39 -48 26z"/>
<path d="M3682 3424 c-40 -43 -36 -52 9 -25 42 26 50 26 42 4 -4 -14 -3 -15 6
-7 12 11 -1 64 -16 64 -5 0 -23 -16 -41 -36z"/>
<path d="M3233 3416 c4 -10 7 -21 7 -26 0 -4 14 -13 30 -19 17 -5 30 -15 30
-20 0 -6 5 -11 10 -11 13 0 2 50 -14 67 -6 6 -24 15 -40 19 -25 6 -28 5 -23
-10z"/>
<path d="M3390 3388 c0 -9 5 -20 10 -23 13 -8 13 5 0 25 -8 13 -10 13 -10 -2z"/>
<path d="M3211 3378 c-1 -9 6 -24 15 -32 17 -17 59 -22 49 -6 -3 6 -12 10 -19
10 -8 0 -21 10 -29 23 -13 18 -16 19 -16 5z"/>
<path d="M3746 3373 c-6 -14 -5 -15 5 -6 7 7 10 15 7 18 -3 3 -9 -2 -12 -12z"/>
<path d="M5371 3333 c-1 -17 4 -35 9 -38 12 -7 12 22 0 50 -7 17 -9 15 -9 -12z"/>
<path d="M3225 3310 c3 -5 15 -10 26 -10 11 0 17 5 14 10 -3 6 -15 10 -26 10
-11 0 -17 -4 -14 -10z"/>
<path d="M3894 3265 c26 -19 42 -19 26 0 -7 8 -20 15 -29 15 -13 -1 -13 -3 3
-15z"/>
<path d="M3890 3243 c0 -13 29 -38 35 -31 3 3 -4 13 -15 23 -11 10 -20 13 -20
8z"/>
<path d="M3405 3220 c-3 -6 1 -7 9 -4 18 7 21 14 7 14 -6 0 -13 -4 -16 -10z"/>
<path d="M3867 3198 c-7 -26 10 -61 25 -52 7 5 6 11 -5 19 -26 19 -20 27 16
21 29 -5 30 -5 10 6 -13 6 -23 15 -23 20 0 17 -18 7 -23 -14z"/>
<path d="M3425 3200 c-4 -6 5 -10 19 -10 14 0 26 5 26 10 0 6 -9 10 -19 10
-11 0 -23 -4 -26 -10z"/>
<path d="M3432 3167 c-40 -12 -40 -40 0 -45 19 -2 28 2 33 17 3 12 11 21 16
21 5 0 9 5 9 10 0 12 -14 11 -58 -3z"/>
<path d="M3717 3136 c-4 -28 -3 -54 2 -59 11 -11 34 1 26 14 -3 5 -9 28 -14
51 l-7 43 -7 -49z"/>
<path d="M3770 3116 c0 -41 4 -55 17 -60 29 -12 38 11 20 49 -9 20 -17 42 -17
50 0 8 -4 15 -10 15 -5 0 -10 -24 -10 -54z"/>
<path d="M3511 3130 c-27 -25 -31 -33 -21 -45 19 -23 28 -18 50 25 31 62 23
67 -29 20z"/>
<path d="M3820 3140 c0 -11 6 -20 14 -20 8 0 17 -11 20 -25 6 -25 20 -33 31
-16 8 14 -34 81 -51 81 -8 0 -14 -9 -14 -20z"/>
<path d="M3656 3118 c-10 -40 -7 -68 10 -75 26 -10 34 9 22 55 -12 47 -23 54
-32 20z"/>
<path d="M3584 3112 c-6 -4 -16 -17 -23 -30 -10 -18 -9 -23 4 -28 9 -4 21 -2
26 3 14 14 7 65 -7 55z"/>
<path d="M1440 2916 c0 -2 8 -10 18 -17 15 -13 16 -12 3 4 -13 16 -21 21 -21
13z"/>
<path d="M3523 2905 c0 -8 4 -12 9 -9 5 3 6 10 3 15 -9 13 -12 11 -12 -6z"/>
<path d="M1670 2851 c0 -6 4 -13 10 -16 6 -3 7 1 4 9 -7 18 -14 21 -14 7z"/>
<path d="M1420 2811 c0 -5 5 -13 10 -16 6 -3 10 -2 10 4 0 5 -4 13 -10 16 -5
3 -10 2 -10 -4z"/>
<path d="M3730 2801 c0 -20 26 -36 35 -21 5 7 -20 40 -31 40 -2 0 -4 -9 -4
-19z"/>
<path d="M2600 2800 c0 -5 9 -10 20 -10 11 0 20 5 20 10 0 6 -9 10 -20 10 -11
0 -20 -4 -20 -10z"/>
<path d="M3770 2800 c0 -5 11 -10 25 -10 14 0 25 5 25 10 0 6 -11 10 -25 10
-14 0 -25 -4 -25 -10z"/>
<path d="M4078 2798 c-3 -8 -20 -12 -44 -11 l-39 2 35 -9 c41 -11 70 -4 70 16
0 17 -17 19 -22 2z"/>
<path d="M1415 2770 c-3 -5 -1 -10 4 -10 6 0 11 5 11 10 0 6 -2 10 -4 10 -3 0
-8 -4 -11 -10z"/>
<path d="M1635 2759 c-4 -6 -5 -12 -2 -15 2 -3 7 2 10 11 7 17 1 20 -8 4z"/>
<path d="M1355 2650 c-3 -5 -1 -10 4 -10 6 0 11 5 11 10 0 6 -2 10 -4 10 -3 0
-8 -4 -11 -10z"/>
<path d="M5070 2440 c-13 -9 -13 -10 0 -10 11 -1 10 -4 -4 -15 -11 -8 -16 -15
-10 -15 5 0 18 7 28 15 23 18 10 40 -14 25z"/>
<path d="M2640 2310 c-12 -8 -12 -10 5 -10 11 0 27 5 35 10 12 8 12 10 -5 10
-11 0 -27 -5 -35 -10z"/>
<path d="M2600 2289 c0 -5 5 -7 10 -4 6 3 10 8 10 11 0 2 -4 4 -10 4 -5 0 -10
-5 -10 -11z"/>
<path d="M1990 2281 c0 -7 -5 -9 -12 -5 -7 5 -8 3 -3 -5 5 -9 10 -10 18 -2 6
6 8 14 4 18 -4 3 -7 1 -7 -6z"/>
<path d="M4168 2253 c6 -2 18 -2 25 0 6 3 1 5 -13 5 -14 0 -19 -2 -12 -5z"/>
<path d="M2475 2240 c-25 -11 1 -11 35 0 20 6 21 8 5 8 -11 0 -29 -3 -40 -8z"/>
<path d="M4230 2240 c8 -5 22 -9 30 -9 10 0 8 3 -5 9 -27 12 -43 12 -25 0z"/>
<path d="M2420 2220 c-8 -5 -10 -10 -5 -10 6 0 17 5 25 10 8 5 11 10 5 10 -5
0 -17 -5 -25 -10z"/>
<path d="M2365 2210 c-13 -6 -15 -9 -5 -9 8 0 22 4 30 9 18 12 2 12 -25 0z"/>
<path d="M4071 1079 c-13 -39 -14 -49 -1 -29 6 9 10 10 10 3 0 -6 -4 -15 -10
-18 -5 -3 -10 -16 -10 -28 0 -21 0 -21 14 -2 12 17 21 105 11 105 -2 0 -8 -14
-14 -31z"/>
<path d="M2692 1055 c0 -16 2 -22 5 -12 2 9 2 23 0 30 -3 6 -5 -1 -5 -18z"/>
<path d="M4000 1070 c-28 -9 -27 -11 13 -16 18 -2 27 2 27 12 0 15 -3 16 -40
4z"/>
<path d="M2747 1054 c2 -7 19 -12 36 -12 18 1 57 -2 88 -7 38 -5 62 -4 75 4
16 10 12 11 -21 6 -22 -3 -72 1 -112 8 -58 12 -70 12 -66 1z"/>
<path d="M2796 1021 c-4 -7 10 -13 36 -18 l43 -7 -35 -6 -35 -5 36 -17 c20
-10 62 -20 95 -23 41 -3 51 -2 34 4 -14 5 -41 9 -61 10 -41 1 -53 9 -39 26 7
9 6 16 -2 23 -21 17 -65 25 -72 13z"/>
<path d="M2776 989 c21 -23 21 -23 21 -5 0 8 -9 17 -20 20 -18 4 -18 4 -1 -15z"/>
<path d="M3910 1000 c-12 -7 -10 -9 7 -7 12 0 19 5 17 9 -6 10 -6 10 -24 -2z"/>
<path d="M2958 973 c7 -3 16 -2 19 1 4 3 -2 6 -13 5 -11 0 -14 -3 -6 -6z"/>
<path d="M2991 976 c10 -9 79 -14 79 -5 0 5 -19 9 -42 9 -23 0 -39 -2 -37 -4z"/>
<path d="M2760 950 c0 -11 4 -20 9 -20 5 0 7 9 4 20 -3 11 -7 20 -9 20 -2 0
-4 -9 -4 -20z"/>
<path d="M3730 966 c0 -3 9 -10 20 -16 11 -6 20 -8 20 -6 0 3 -9 10 -20 16
-11 6 -20 8 -20 6z"/>
<path d="M3803 953 c9 -2 23 -2 30 0 6 3 -1 5 -18 5 -16 0 -22 -2 -12 -5z"/>
<path d="M3970 940 c-9 -6 -10 -10 -3 -10 6 0 15 5 18 10 8 12 4 12 -15 0z"/>
<path d="M4031 933 c0 -13 -12 -30 -26 -39 -14 -9 -23 -19 -20 -23 4 -3 -9
-11 -27 -17 -25 -10 -28 -13 -11 -13 49 -2 132 64 109 86 -3 4 -7 -2 -7 -13
-1 -12 -4 -7 -9 11 -6 24 -8 25 -9 8z"/>
<path d="M2836 931 c-4 -5 4 -7 16 -3 14 3 19 1 14 -6 -5 -8 -1 -10 9 -5 13 5
14 7 3 14 -17 11 -35 11 -42 0z"/>
<path d="M3678 933 c6 -2 18 -2 25 0 6 3 1 5 -13 5 -14 0 -19 -2 -12 -5z"/>
<path d="M2910 920 c8 -5 22 -9 30 -9 10 0 8 3 -5 9 -27 12 -43 12 -25 0z"/>
<path d="M3010 920 c-13 -9 -13 -10 0 -10 8 0 22 5 30 10 13 9 13 10 0 10 -8
0 -22 -5 -30 -10z"/>
<path d="M3118 923 c7 -3 16 -2 19 1 4 3 -2 6 -13 5 -11 0 -14 -3 -6 -6z"/>
<path d="M3191 926 c2 -2 31 -6 64 -9 36 -3 52 -2 40 3 -19 8 -113 14 -104 6z"/>
<path d="M3598 923 c6 -2 18 -2 25 0 6 3 1 5 -13 5 -14 0 -19 -2 -12 -5z"/>
<path d="M2830 902 c0 -10 62 -28 118 -35 17 -2 32 0 32 4 0 10 -66 23 -78 15
-6 -3 -12 -2 -14 3 -4 13 -58 25 -58 13z"/>
<path d="M3405 899 l-60 -6 78 -1 c74 -2 96 2 60 9 -10 2 -45 1 -78 -2z"/>
<path d="M3675 900 c16 -7 10 -9 -25 -11 -34 -1 -38 -3 -16 -6 16 -3 45 -1 65
3 34 7 35 7 11 14 -35 11 -60 11 -35 0z"/>
<path d="M3004 892 c3 -6 3 -12 -1 -15 -5 -2 -1 -2 7 1 19 6 29 6 115 -1 50
-5 59 -4 30 2 -77 16 -158 23 -151 13z"/>
<path d="M3766 889 c-22 -5 -42 -12 -45 -16 -3 -3 8 -2 24 2 17 4 70 7 119 6
49 0 87 1 85 4 -10 9 -146 12 -183 4z"/>
<path d="M3378 873 c18 -2 45 -2 60 0 15 2 0 4 -33 4 -33 0 -45 -2 -27 -4z"/>
<path d="M3038 863 c7 -3 16 -2 19 1 4 3 -2 6 -13 5 -11 0 -14 -3 -6 -6z"/>
<path d="M3230 860 c-13 -8 -12 -10 3 -10 9 0 17 5 17 10 0 12 -1 12 -20 0z"/>
<path d="M3660 860 c14 -9 68 -15 59 -6 -3 3 -20 8 -39 11 -25 4 -31 3 -20 -5z"/>
<path d="M3918 863 c6 -2 18 -2 25 0 6 3 1 5 -13 5 -14 0 -19 -2 -12 -5z"/>
<path d="M3473 848 c14 -9 120 -8 111 1 -3 3 -32 6 -65 6 -32 1 -53 -3 -46 -7z"/>
<path d="M2883 843 c9 -2 23 -2 30 0 6 3 -1 5 -18 5 -16 0 -22 -2 -12 -5z"/>
<path d="M3268 843 c7 -3 16 -2 19 1 4 3 -2 6 -13 5 -11 0 -14 -3 -6 -6z"/>
<path d="M3325 830 c-14 -7 -8 -8 20 -3 22 3 42 7 44 9 9 8 -45 2 -64 -6z"/>
<path d="M3448 833 c7 -3 16 -2 19 1 4 3 -2 6 -13 5 -11 0 -14 -3 -6 -6z"/>
<path d="M3388 813 c12 -2 30 -2 40 0 9 3 -1 5 -23 4 -22 0 -30 -2 -17 -4z"/>
<path d="M3543 813 c9 -2 25 -2 35 0 9 3 1 5 -18 5 -19 0 -27 -2 -17 -5z"/>
<path d="M3188 803 c12 -2 30 -2 40 0 9 3 -1 5 -23 4 -22 0 -30 -2 -17 -4z"/>
<path d="M1692 4867 c-22 -23 -22 -24 -4 -40 13 -12 37 -17 85 -17 55 0 70 4
87 22 24 26 25 32 5 48 -17 14 -36 5 -29 -13 7 -19 -31 -49 -58 -45 -15 2 -28
15 -37 36 -17 38 -21 39 -49 9z"/>
<path d="M1725 4720 c-16 -7 -17 -9 -3 -9 9 -1 20 4 23 9 7 11 7 11 -20 0z"/>
<path d="M1633 4683 c9 -2 25 -2 35 0 9 3 1 5 -18 5 -19 0 -27 -2 -17 -5z"/>
</g>
</svg>
