<?xml version="1.0" standalone="no"?>
<!DOCTYPE svg PUBLIC "-//W3C//DTD SVG 20010904//EN"
 "http://www.w3.org/TR/2001/REC-SVG-20010904/DTD/svg10.dtd">
<svg version="1.0" xmlns="http://www.w3.org/2000/svg"
 width="696.000000pt" height="696.000000pt" viewBox="0 0 696.000000 696.000000"
 preserveAspectRatio="xMidYMid meet">

<g transform="translate(0.000000,696.000000) scale(0.100000,-0.100000)"
fill="#000000" stroke="none">
<path d="M4081 5735 c-18 -8 -43 -15 -55 -15 -30 0 -59 -33 -92 -105 -24 -52
-28 -74 -30 -163 -1 -90 -4 -106 -23 -126 -11 -12 -21 -27 -21 -34 0 -19 -48
-60 -86 -72 -25 -8 -64 -10 -115 -6 -95 8 -159 -6 -199 -44 -76 -71 -8 -150
129 -150 52 0 47 -11 -11 -25 -38 -10 -41 -13 -44 -50 -2 -28 -1 -36 6 -25 5
8 10 22 10 31 0 21 29 29 102 29 76 0 165 33 203 75 59 64 75 87 75 105 0 10
15 29 33 42 45 34 67 41 73 23 10 -25 37 -17 94 30 30 25 58 45 63 45 4 0 12
11 17 24 7 20 14 24 35 20 14 -2 33 -1 41 4 14 8 12 13 -9 38 l-25 29 48 57
c80 96 87 200 17 252 -37 28 -184 34 -236 11z m76 -20 c10 -16 12 -17 13 -4 0
11 11 18 33 22 35 5 61 -8 34 -19 -9 -3 -17 -12 -17 -19 0 -8 -7 -20 -15 -29
-9 -8 -16 -18 -16 -20 -1 -3 -3 -15 -6 -27 -4 -15 -8 -17 -14 -8 -6 10 -10 7
-17 -11 -9 -24 -10 -23 -22 18 -7 23 -16 42 -20 42 -13 0 -31 53 -22 62 6 6
12 -3 15 -21 4 -17 11 -31 17 -31 6 0 6 7 -1 19 -14 21 -5 52 13 49 7 -2 18
-12 25 -23z m162 -14 c28 -25 38 -86 21 -137 -21 -63 -112 -151 -140 -134 -7
4 -10 15 -7 24 5 13 11 15 27 6 16 -8 18 -8 14 4 -4 11 6 21 30 33 36 17 52
42 19 28 -10 -4 -32 -9 -48 -10 -17 -1 -41 -7 -54 -14 -12 -7 -26 -10 -29 -6
-9 8 75 167 105 199 29 31 33 32 62 7z m-249 -26 c31 -33 41 -128 16 -138 -10
-4 -15 -3 -12 2 3 5 -1 12 -10 15 -8 3 -12 2 -9 -4 3 -6 1 -10 -4 -10 -6 0
-11 8 -12 18 0 10 -3 12 -6 5 -3 -9 -10 -10 -24 -3 -14 8 -19 7 -19 -1 0 -8
-5 -7 -17 2 -16 13 -17 12 -4 -3 12 -16 9 -22 -12 -19 -11 2 -29 -50 -23 -65
3 -8 1 -16 -4 -19 -15 -9 -12 55 6 116 21 71 60 129 89 129 12 0 32 -11 45
-25z m-60 -132 c0 -5 -3 -19 -7 -31 -4 -18 -8 -20 -14 -10 -12 19 -11 30 3 22
8 -5 9 -2 5 9 -3 10 -2 17 3 17 6 0 10 -3 10 -7z m-483 -375 c-21 -17 -32 -64
-17 -73 8 -5 8 -10 -1 -21 -17 -21 -46 0 -47 33 0 32 13 52 43 63 30 13 41 12
22 -2z m128 -13 l40 -13 -32 -1 c-20 -1 -33 -6 -33 -14 0 -21 -65 -40 -90 -27
-25 13 -25 25 0 50 23 23 57 24 115 5z"/>
<path d="M4130 5705 c0 -8 4 -15 10 -15 5 0 7 7 4 15 -4 8 -8 15 -10 15 -2 0
-4 -7 -4 -15z"/>
<path d="M4183 5685 c0 -11 4 -12 14 -4 7 6 13 13 13 15 0 2 -6 4 -13 4 -8 0
-14 -7 -14 -15z"/>
<path d="M4141 5664 c0 -11 3 -14 6 -6 3 7 2 16 -1 19 -3 4 -6 -2 -5 -13z"/>
<path d="M4161 5664 c0 -11 3 -14 6 -6 3 7 2 16 -1 19 -3 4 -6 -2 -5 -13z"/>
<path d="M4141 5624 c0 -11 3 -14 6 -6 3 7 2 16 -1 19 -3 4 -6 -2 -5 -13z"/>
<path d="M3470 5086 c0 -2 7 -7 16 -10 8 -3 12 -2 9 4 -6 10 -25 14 -25 6z"/>
<path d="M2890 5065 c7 -9 15 -13 17 -11 7 7 -7 26 -19 26 -6 0 -6 -6 2 -15z"/>
<path d="M2087 5042 c-23 -25 -21 -102 2 -102 15 0 30 47 19 58 -6 6 -6 12 1
16 13 8 15 46 3 46 -5 0 -16 -8 -25 -18z"/>
<path d="M2976 5043 c-14 -4 -17 -11 -12 -34 4 -22 2 -29 -9 -29 -8 0 -15 5
-15 10 0 6 -5 10 -11 10 -8 0 -7 -6 2 -16 8 -9 14 -24 14 -32 0 -19 25 -29 26
-10 0 7 4 4 8 -7 5 -11 4 -28 -1 -39 -7 -13 -7 -16 1 -12 6 4 11 3 11 -2 0
-18 -39 -21 -44 -3 -3 9 -4 5 -3 -9 2 -22 6 -25 37 -22 27 2 31 0 20 -8 -13
-9 -13 -11 0 -20 13 -9 13 -11 0 -20 -13 -9 -13 -10 0 -10 10 0 6 -6 -10 -18
-14 -9 -26 -24 -28 -32 -2 -8 -7 -17 -12 -20 -4 -3 -10 -16 -11 -30 -3 -17
-11 -26 -26 -28 -13 -2 -23 -8 -23 -13 0 -6 -4 -8 -9 -5 -5 3 -21 0 -36 -8
-15 -8 -22 -17 -16 -20 6 -4 19 -2 30 4 28 15 33 13 29 -12 -2 -13 -13 -27
-26 -33 -12 -5 -21 -14 -19 -19 4 -13 37 -16 37 -4 0 6 11 8 25 4 22 -6 25 -3
25 18 0 18 4 24 15 20 17 -7 98 49 88 60 -4 4 0 4 9 1 9 -4 18 0 22 10 3 10
12 15 20 12 16 -6 41 34 34 55 -3 7 -1 21 4 32 7 12 7 16 0 12 -5 -3 -12 9
-16 26 -4 18 -2 34 4 38 6 4 8 14 4 23 -3 9 -9 15 -14 12 -14 -9 4 50 19 62
14 11 14 14 1 22 -8 6 -17 7 -20 3 -3 -4 -14 -7 -25 -7 -14 0 -21 8 -23 28 -4
29 -11 34 -30 15 -9 -9 -12 -5 -12 20 0 18 -3 31 -7 31 -5 -1 -16 -3 -27 -6z
m20 -70 c-10 -10 -19 5 -10 18 6 11 8 11 12 0 2 -7 1 -15 -2 -18z m25 -78 c8
19 9 19 6 1 -4 -32 -27 -31 -26 1 2 27 2 27 7 3 4 -23 5 -24 13 -5z m-6 -245
c3 -5 1 -10 -4 -10 -6 0 -11 5 -11 10 0 6 2 10 4 10 3 0 8 -4 11 -10z"/>
<path d="M2790 5031 c0 -6 5 -13 10 -16 6 -3 10 1 10 9 0 9 -4 16 -10 16 -5 0
-10 -4 -10 -9z"/>
<path d="M2353 4939 c-8 -8 -9 -19 -2 -36 9 -25 13 -30 59 -83 27 -30 30 -40
25 -70 -20 -113 -14 -158 19 -131 9 8 16 24 16 37 0 12 6 29 13 36 6 7 11 28
10 45 -1 38 7 45 54 49 36 3 83 39 83 65 0 16 -68 49 -101 49 -8 0 -20 5 -27
12 -6 6 -33 15 -59 18 -27 4 -55 10 -63 14 -9 3 -21 1 -27 -5z m122 -91 c14
-6 25 -15 25 -19 0 -12 -53 6 -58 19 -5 15 0 15 33 0z"/>
<path d="M2797 4845 c3 -8 9 -12 14 -9 12 7 11 11 -5 17 -10 4 -13 1 -9 -8z"/>
<path d="M5529 4855 c-3 -5 -9 -23 -13 -40 -7 -28 -6 -29 9 -14 9 9 15 27 13
40 -2 13 -6 20 -9 14z"/>
<path d="M2890 4784 c0 -8 5 -12 10 -9 6 4 8 11 5 16 -9 14 -15 11 -15 -7z"/>
<path d="M5466 4751 c-4 -7 -5 -15 -2 -18 9 -9 19 4 14 18 -4 11 -6 11 -12 0z"/>
<path d="M5270 4709 c0 -11 5 -17 10 -14 6 3 10 13 10 21 0 8 -4 14 -10 14 -5
0 -10 -9 -10 -21z"/>
<path d="M5411 4681 c-14 -24 -14 -31 -1 -31 14 0 32 38 21 45 -6 3 -15 -3
-20 -14z"/>
<path d="M5334 4595 c-6 -33 -6 -59 -1 -64 10 -10 -7 -48 -20 -43 -4 2 -10 -5
-12 -15 -2 -10 -7 -20 -11 -23 -4 -3 -10 -17 -14 -32 -5 -21 -3 -28 9 -28 8 0
15 5 15 11 0 5 5 7 10 4 6 -3 10 1 10 9 0 9 5 16 11 16 7 0 9 -10 5 -27 -4
-16 -8 -37 -9 -48 -1 -11 -5 -24 -8 -30 -3 -5 -2 -26 1 -45 6 -30 8 -32 15
-15 5 11 15 26 22 33 15 16 18 86 3 77 -5 -3 -10 -19 -10 -36 0 -16 -4 -29 -9
-29 -18 0 -5 60 17 81 l23 21 -23 16 c-13 9 -27 16 -32 14 -5 -2 -6 4 -2 13 3
9 6 19 6 22 0 3 9 -5 19 -18 11 -13 21 -22 24 -19 8 9 15 100 7 105 -9 6 -1
53 11 61 5 3 9 13 9 22 0 10 -3 13 -8 6 -8 -12 -46 -28 -38 -16 2 4 1 13 -3
20 -4 6 -11 -13 -17 -43z"/>
<path d="M5131 4624 c0 -11 3 -14 6 -6 3 7 2 16 -1 19 -3 4 -6 -2 -5 -13z"/>
<path d="M5280 4630 c0 -5 5 -10 11 -10 5 0 7 5 4 10 -3 6 -8 10 -11 10 -2 0
-4 -4 -4 -10z"/>
<path d="M5252 4590 c2 -29 3 -29 20 -10 20 21 24 35 8 25 -5 -3 -10 -1 -10 4
0 6 -5 11 -10 11 -6 0 -9 -13 -8 -30z"/>
<path d="M4079 4576 c-19 -32 -17 -70 6 -95 11 -11 16 -9 30 13 10 14 15 33
11 41 -3 9 0 15 9 15 13 0 45 36 45 51 0 4 -19 6 -42 5 -34 -1 -44 -6 -59 -30z"/>
<path d="M2835 4590 c3 -5 8 -10 11 -10 2 0 4 5 4 10 0 6 -5 10 -11 10 -5 0
-7 -4 -4 -10z"/>
<path d="M4891 4582 c-1 -7 -6 -10 -11 -7 -26 16 -1 -45 28 -70 21 -18 31 -33
27 -43 -3 -8 0 -19 7 -23 18 -11 15 -139 -4 -150 -11 -7 -10 -11 2 -19 13 -9
13 -12 -2 -21 -16 -9 -15 -13 12 -41 30 -30 38 -48 22 -48 -4 0 -16 9 -25 21
-15 16 -21 18 -33 9 -8 -7 -14 -18 -14 -24 0 -6 5 -4 10 4 7 12 10 8 11 -15 0
-26 2 -27 9 -10 8 20 9 20 9 -1 1 -12 -10 -36 -24 -55 -14 -19 -33 -46 -42
-60 -9 -14 -29 -31 -44 -38 -36 -16 -43 -36 -13 -39 13 -1 24 2 24 7 0 5 14
11 30 13 25 4 30 2 24 -11 -13 -32 -14 -46 -5 -61 6 -8 14 -11 18 -6 4 5 3 11
-4 13 -8 3 -5 12 10 29 11 13 27 22 35 19 8 -3 22 5 33 17 23 29 24 38 2 39
-13 0 -11 3 6 10 14 5 34 8 45 7 11 -2 21 2 21 7 0 6 4 16 9 23 5 9 2 15 -13
19 -17 4 -19 11 -14 37 3 17 11 37 16 44 8 10 7 16 -4 23 -9 6 -10 9 -2 9 7 0
12 10 11 23 0 12 3 34 7 50 5 17 3 27 -4 27 -6 0 -11 9 -11 20 0 11 6 20 14
20 22 0 27 39 7 59 -10 10 -25 21 -32 23 -10 3 -5 12 15 31 25 23 26 27 10 28
-10 1 -25 1 -31 0 -7 -1 -13 5 -13 14 0 8 6 15 13 15 8 0 8 3 -2 9 -9 6 -19 4
-28 -5 -19 -18 -33 -18 -33 1 0 8 4 15 10 15 5 0 7 7 3 15 -5 14 -8 14 -24 -1
-25 -22 -46 -12 -58 28 -5 18 -10 27 -10 20z m129 -132 c0 -5 -4 -10 -10 -10
-5 0 -10 5 -10 10 0 6 5 10 10 10 6 0 10 -4 10 -10z m-50 -167 c-11 -17 -11
-17 -6 0 3 10 7 26 7 35 1 15 2 15 6 0 2 -10 -1 -25 -7 -35z m20 -67 c0 -3 -4
-8 -10 -11 -5 -3 -10 -1 -10 4 0 6 5 11 10 11 6 0 10 -2 10 -4z m-46 -218 c14
-16 15 -20 3 -15 -8 3 -20 0 -26 -6 -8 -8 -11 -8 -11 1 0 7 5 12 10 12 6 0 10
5 10 11 0 6 -9 8 -21 4 -15 -5 -19 -4 -15 4 11 17 30 13 50 -11z"/>
<path d="M4931 4544 c0 -11 3 -14 6 -6 3 7 2 16 -1 19 -3 4 -6 -2 -5 -13z"/>
<path d="M4990 4550 c0 -5 5 -10 11 -10 5 0 7 5 4 10 -3 6 -8 10 -11 10 -2 0
-4 -4 -4 -10z"/>
<path d="M2706 4484 c-10 -27 -7 -34 19 -34 27 0 33 18 13 38 -16 16 -25 15
-32 -4z"/>
<path d="M5065 4490 c3 -5 8 -10 11 -10 2 0 4 5 4 10 0 6 -5 10 -11 10 -5 0
-7 -4 -4 -10z"/>
<path d="M5115 4460 c-3 -6 1 -7 9 -4 18 7 21 14 7 14 -6 0 -13 -4 -16 -10z"/>
<path d="M5076 4405 c4 -8 8 -15 10 -15 2 0 4 7 4 15 0 8 -4 15 -10 15 -5 0
-7 -7 -4 -15z"/>
<path d="M4445 4382 c-15 -15 -1 -47 35 -79 30 -28 37 -40 29 -50 -9 -9 -7
-20 6 -39 16 -24 16 -27 -1 -45 -12 -13 -14 -22 -6 -31 5 -7 12 -24 14 -38 3
-24 4 -24 19 10 9 19 21 46 26 60 9 22 16 25 59 25 41 0 49 3 46 18 -2 9 1 17
5 17 5 0 33 15 62 34 l54 35 -32 29 c-24 22 -39 27 -61 24 -17 -2 -54 3 -83
13 -50 17 -161 27 -172 17z"/>
<path d="M5255 4370 c4 -7 2 -16 -6 -21 -11 -7 -10 -9 4 -9 19 0 23 25 5 36
-7 5 -8 3 -3 -6z"/>
<path d="M3266 4345 c-3 -8 -1 -15 4 -15 6 0 10 7 10 15 0 8 -2 15 -4 15 -2 0
-6 -7 -10 -15z"/>
<path d="M4904 4335 c-11 -22 -10 -23 7 -12 20 13 24 23 11 31 -4 2 -12 -6
-18 -19z"/>
<path d="M3014 4302 c-4 -12 -10 -22 -15 -22 -5 0 -9 -5 -9 -11 0 -6 8 -9 18
-7 9 2 22 -3 28 -11 10 -12 12 -9 10 17 -2 42 -24 66 -32 34z"/>
<path d="M3089 4270 c-15 -17 -23 -32 -19 -35 5 -3 10 1 13 7 3 9 8 10 15 3 8
-7 2 -20 -21 -42 -102 -101 -96 -96 -94 -74 1 12 6 21 12 21 6 0 21 11 33 25
17 20 20 30 13 43 -10 16 -10 16 -11 0 0 -21 -11 -23 -29 -5 -10 10 -11 6 -5
-17 5 -21 4 -27 -5 -22 -6 4 -14 1 -17 -7 -3 -9 -13 -13 -25 -10 -18 5 -19 2
-14 -23 5 -23 4 -25 -4 -12 -7 10 -19 14 -32 11 -19 -5 -20 -4 -10 15 14 26
14 42 1 42 -6 0 -13 -13 -16 -29 -6 -27 -9 -29 -40 -24 -22 4 -34 2 -34 -6 0
-6 5 -11 10 -11 6 0 10 -4 10 -9 0 -5 -8 -8 -17 -7 -19 3 -43 -16 -43 -33 0
-6 -6 -11 -12 -11 -7 0 0 -7 16 -15 15 -8 36 -15 45 -14 10 0 7 4 -9 11 -21 9
-22 12 -7 15 9 3 17 10 17 16 0 7 5 4 11 -6 6 -9 14 -15 20 -12 14 9 11 -23
-6 -48 -13 -21 -13 -23 6 -23 12 0 18 5 15 13 -3 7 -1 13 4 13 6 0 10 7 10 15
0 17 38 40 48 29 4 -4 1 -9 -5 -11 -7 -3 -13 -12 -13 -20 0 -9 3 -13 7 -10 3
4 12 2 20 -4 10 -9 13 -2 13 37 1 45 2 47 13 26 7 -12 16 -20 19 -17 3 3 18
-1 33 -9 32 -17 45 -13 45 12 0 14 2 15 9 3 6 -9 6 -22 1 -32 -7 -13 -5 -16 8
-15 9 0 17 -4 17 -11 0 -26 12 -21 25 12 8 19 22 37 32 41 11 3 23 15 29 27
11 27 32 60 41 67 4 3 9 17 11 30 2 13 14 31 26 42 18 14 20 18 7 18 -9 0 -21
10 -26 23 -5 12 -9 16 -9 10 -1 -7 -6 -13 -12 -13 -6 0 -8 8 -5 18 4 13 0 18
-13 19 -13 1 -18 -3 -15 -11 5 -14 -21 -46 -37 -46 -5 0 -9 7 -9 15 0 8 -5 15
-11 15 -8 0 -8 5 1 15 23 28 -5 14 -31 -15z m41 -70 c0 -5 -5 -10 -11 -10 -5
0 -7 5 -4 10 3 6 8 10 11 10 2 0 4 -4 4 -10z m-40 -44 c0 -3 -4 -8 -10 -11 -5
-3 -10 -1 -10 4 0 6 5 11 10 11 6 0 10 -2 10 -4z m-230 -43 c0 -10 -20 -40
-20 -31 0 3 -3 13 -6 22 -4 11 -1 16 10 16 9 0 16 -3 16 -7z"/>
<path d="M2951 4213 c-1 -6 -4 -20 -7 -30 -5 -17 -5 -17 6 0 6 10 9 23 6 30
-3 9 -5 9 -5 0z"/>
<path d="M5330 4215 c-1 -5 -1 -21 0 -34 2 -24 1 -24 -17 -6 -18 18 -18 18
-21 -5 -5 -31 -27 -51 -46 -44 -12 4 -16 0 -16 -15 0 -13 6 -21 16 -21 21 0
11 -48 -14 -67 -16 -11 -16 -12 -1 -13 20 0 49 57 49 96 0 22 3 25 12 16 14
-14 38 -16 38 -3 0 5 -8 12 -17 14 -17 4 -17 5 -1 6 19 1 33 38 25 68 -3 10
-6 14 -7 8z"/>
<path d="M2910 4200 c0 -5 5 -10 10 -10 6 0 10 5 10 10 0 6 -4 10 -10 10 -5 0
-10 -4 -10 -10z"/>
<path d="M2780 4155 c-7 -9 -11 -17 -9 -20 3 -2 10 5 17 15 14 24 10 26 -8 5z"/>
<path d="M5215 4159 c-4 -6 -4 -13 0 -17 4 -4 10 -1 12 6 3 6 10 9 15 6 7 -4
8 -2 4 4 -9 15 -23 15 -31 1z"/>
<path d="M5085 4100 c3 -5 8 -10 11 -10 2 0 4 5 4 10 0 6 -5 10 -11 10 -5 0
-7 -4 -4 -10z"/>
<path d="M5193 4058 c-1 -44 0 -48 7 -23 11 41 12 75 2 75 -5 0 -9 -24 -9 -52z"/>
<path d="M2717 4082 c-22 -24 -22 -36 0 -24 9 6 18 17 19 26 3 20 1 20 -19 -2z"/>
<path d="M2555 4050 c-3 -5 -1 -18 4 -27 10 -17 10 -17 11 0 0 21 16 22 24 1
17 -43 -10 -78 -41 -53 -11 10 -16 6 -25 -19 -10 -26 -14 -28 -23 -15 -6 8
-27 16 -46 17 -25 2 -34 6 -33 19 2 19 -4 21 -25 8 -11 -7 -8 -12 11 -25 14
-9 31 -14 39 -11 10 4 15 -5 16 -29 3 -30 0 -33 -17 -29 -24 6 -51 -13 -44
-32 6 -15 72 -4 83 14 4 6 23 17 42 25 20 8 41 22 49 30 7 9 21 16 31 16 20 0
25 15 9 25 -5 3 -10 18 -10 33 0 19 3 23 9 13 7 -11 11 -9 20 8 7 12 17 18 23
15 7 -4 8 -3 4 4 -10 16 -43 15 -49 0 -3 -10 -9 -8 -24 5 -22 20 -29 21 -38 7z
m-18 -122 c-3 -8 -6 -5 -6 6 -1 11 2 17 5 13 3 -3 4 -12 1 -19z m-27 -28 c0
-5 -8 -10 -17 -10 -15 0 -16 2 -3 10 19 12 20 12 20 0z"/>
<path d="M5101 4041 c-14 -26 -9 -37 12 -24 9 5 12 15 7 28 -7 19 -7 19 -19
-4z"/>
<path d="M5130 4046 c0 -9 5 -16 10 -16 6 0 10 4 10 9 0 6 -4 13 -10 16 -5 3
-10 -1 -10 -9z"/>
<path d="M2979 4038 c-8 -24 -7 -58 1 -58 5 0 10 14 10 30 0 17 -2 30 -5 30
-3 0 -5 -1 -6 -2z"/>
<path d="M2500 4011 c0 -6 5 -13 10 -16 6 -3 10 1 10 9 0 9 -4 16 -10 16 -5 0
-10 -4 -10 -9z"/>
<path d="M3008 4013 c7 -3 16 -2 19 1 4 3 -2 6 -13 5 -11 0 -14 -3 -6 -6z"/>
<path d="M5209 3990 c-1 -5 -2 -14 -3 -19 0 -5 -4 -13 -8 -17 -5 -4 -8 -11 -8
-16 0 -16 20 2 35 33 14 26 14 29 0 29 -8 0 -16 -4 -16 -10z"/>
<path d="M3051 3973 c-16 -17 -12 -23 11 -14 10 3 14 11 10 17 -5 9 -11 8 -21
-3z"/>
<path d="M2746 3964 c-21 -20 -21 -54 0 -54 11 0 14 5 10 16 -4 12 -2 15 9 10
11 -4 15 1 15 19 0 29 -12 32 -34 9z"/>
<path d="M5051 3958 c6 -10 13 -18 16 -18 3 0 3 3 -1 7 -3 4 3 12 15 19 21 11
20 11 -9 10 -25 -1 -29 -4 -21 -18z"/>
<path d="M2915 3960 c-3 -5 -1 -10 4 -10 6 0 11 5 11 10 0 6 -2 10 -4 10 -3 0
-8 -4 -11 -10z"/>
<path d="M4970 3945 c-8 -9 -8 -15 -2 -15 12 0 26 19 19 26 -2 2 -10 -2 -17
-11z"/>
<path d="M2960 3940 c0 -5 5 -10 11 -10 5 0 7 5 4 10 -3 6 -8 10 -11 10 -2 0
-4 -4 -4 -10z"/>
<path d="M5006 3934 c-9 -24 -7 -44 5 -44 6 0 9 9 6 20 -3 10 0 21 6 23 8 2 8
5 0 10 -6 4 -14 0 -17 -9z"/>
<path d="M5120 3941 c0 -5 -10 -7 -22 -3 -17 4 -20 2 -15 -12 4 -10 7 -25 7
-34 1 -15 2 -15 11 1 5 9 16 17 23 17 8 0 17 7 20 16 9 22 8 24 -9 24 -8 0
-15 -4 -15 -9z"/>
<path d="M3100 3920 c0 -11 2 -20 4 -20 2 0 6 9 9 20 3 11 1 20 -4 20 -5 0 -9
-9 -9 -20z"/>
<path d="M3146 3931 c-4 -7 -5 -15 -2 -18 9 -9 19 4 14 18 -4 11 -6 11 -12 0z"/>
<path d="M2690 3917 c0 -19 13 -32 35 -35 18 -2 19 -2 2 8 -9 6 -15 15 -12 20
3 4 -2 10 -10 14 -8 3 -15 0 -15 -7z"/>
<path d="M5160 3919 c0 -8 -10 -19 -22 -24 -15 -7 -23 -19 -24 -37 -1 -16 3
-28 8 -28 5 0 6 9 3 20 -6 18 3 25 27 21 10 -1 22 48 14 56 -3 4 -6 0 -6 -8z"/>
<path d="M3030 3896 c0 -13 -8 -27 -17 -30 -15 -6 -15 -8 -3 -16 8 -5 16 -7
18 -5 9 9 19 75 11 75 -5 0 -9 -11 -9 -24z"/>
<path d="M4835 3909 c-12 -18 3 -22 20 -5 14 14 14 16 1 16 -8 0 -18 -5 -21
-11z"/>
<path d="M4955 3910 c3 -5 8 -10 11 -10 2 0 4 5 4 10 0 6 -5 10 -11 10 -5 0
-7 -4 -4 -10z"/>
<path d="M2833 3895 c-7 -19 -2 -24 28 -30 25 -5 40 10 32 32 -7 18 -52 17
-60 -2z"/>
<path d="M4800 3900 c0 -5 5 -10 10 -10 6 0 10 5 10 10 0 6 -4 10 -10 10 -5 0
-10 -4 -10 -10z"/>
<path d="M2350 3891 c0 -5 7 -11 15 -15 9 -3 15 0 15 9 0 8 -7 15 -15 15 -8 0
-15 -4 -15 -9z"/>
<path d="M2750 3890 c0 -6 7 -10 15 -10 8 0 15 2 15 4 0 2 -7 6 -15 10 -8 3
-15 1 -15 -4z"/>
<path d="M3118 3886 c-33 -11 -38 -31 -7 -21 13 4 25 2 29 -5 10 -16 19 1 11
20 -5 13 -12 14 -33 6z"/>
<path d="M4730 3891 c0 -5 11 -8 25 -8 14 0 25 3 25 8 0 5 -11 9 -25 9 -14 0
-25 -4 -25 -9z"/>
<path d="M3056 3868 c-6 -24 9 -47 21 -33 5 4 3 10 -3 12 -7 2 -10 13 -7 23 3
11 3 20 0 20 -2 0 -7 -10 -11 -22z"/>
<path d="M3182 3835 c0 -16 2 -22 5 -12 2 9 2 23 0 30 -3 6 -5 -1 -5 -18z"/>
<path d="M2936 3833 c-3 -10 -9 -24 -12 -32 -4 -8 -2 -11 4 -7 10 6 27 -23 18
-31 -8 -8 -46 18 -46 31 0 12 -40 46 -55 46 -3 0 -5 -12 -4 -27 0 -16 3 -22 6
-15 2 6 11 12 19 12 9 0 13 -4 10 -9 -4 -5 17 -30 46 -55 49 -42 53 -44 70
-29 17 15 17 17 -4 35 -15 13 -22 28 -20 47 4 34 -22 61 -32 34z"/>
<path d="M4896 3841 c-4 -7 -5 -15 -2 -18 9 -9 19 4 14 18 -4 11 -6 11 -12 0z"/>
<path d="M2266 3833 c-13 -13 -5 -21 19 -19 14 0 27 6 29 11 4 12 -37 19 -48
8z"/>
<path d="M3100 3826 c0 -9 5 -16 10 -16 6 0 10 4 10 9 0 6 -4 13 -10 16 -5 3
-10 -1 -10 -9z"/>
<path d="M5092 3820 c0 -14 2 -19 5 -12 2 6 2 18 0 25 -3 6 -5 1 -5 -13z"/>
<path d="M1773 3815 c-43 -18 -42 -29 7 -41 32 -9 40 -8 45 3 8 23 6 30 -5 13
-8 -12 -10 -10 -10 8 0 15 4 21 12 16 7 -4 8 -3 4 4 -9 15 -13 15 -53 -3z"/>
<path d="M4955 3821 c-3 -5 -1 -12 5 -16 5 -3 10 1 10 9 0 18 -6 21 -15 7z"/>
<path d="M5040 3819 c0 -6 -6 -9 -14 -6 -9 4 -16 -3 -20 -16 -6 -25 2 -37 13
-18 5 7 13 11 19 7 5 -3 13 1 16 10 9 23 7 34 -4 34 -5 0 -10 -5 -10 -11z"/>
<path d="M2060 3797 c0 -10 -4 -15 -10 -12 -6 3 -10 -4 -10 -17 0 -18 -2 -20
-10 -8 -5 8 -11 12 -14 9 -10 -9 16 -82 39 -114 13 -16 26 -43 29 -60 6 -27 5
-28 -5 -8 -12 23 -39 39 -39 23 0 -6 5 -10 11 -10 6 0 9 -9 6 -20 -3 -11 -2
-18 3 -15 4 3 10 -5 14 -18 9 -33 7 -44 -4 -27 -5 8 -10 11 -10 5 0 -5 4 -16
9 -24 12 -18 -6 -54 -47 -97 -18 -18 -27 -36 -23 -43 11 -17 65 55 97 130 29
69 37 170 16 191 -7 7 -12 22 -12 35 0 13 -5 23 -11 23 -5 0 -8 3 -6 8 2 4 -2
21 -9 37 -9 20 -13 24 -14 12z"/>
<path d="M3060 3800 c0 -5 4 -10 9 -10 6 0 13 5 16 10 3 6 -1 10 -9 10 -9 0
-16 -4 -16 -10z"/>
<path d="M4835 3796 c-3 -9 -7 -23 -10 -31 -2 -8 -1 -15 4 -15 5 0 11 12 14
28 6 30 0 44 -8 18z"/>
<path d="M1850 3780 c0 -5 5 -10 11 -10 5 0 7 5 4 10 -3 6 -8 10 -11 10 -2 0
-4 -4 -4 -10z"/>
<path d="M4900 3775 c0 -8 -9 -24 -21 -36 -23 -23 -21 -33 5 -23 9 3 17 16 17
28 1 16 2 17 6 4 6 -25 18 -22 37 7 17 26 9 34 -12 13 -9 -9 -12 -8 -12 5 0 9
-4 17 -10 17 -5 0 -10 -7 -10 -15z"/>
<path d="M3221 3764 c0 -11 3 -14 6 -6 3 7 2 16 -1 19 -3 4 -6 -2 -5 -13z"/>
<path d="M1656 3754 c-11 -29 -6 -62 10 -68 24 -9 28 -7 14 9 -7 8 -10 26 -8
40 6 29 -7 43 -16 19z"/>
<path d="M2131 3761 c-9 -6 -11 -16 -5 -32 4 -13 7 -31 5 -38 -2 -12 0 -13 12
-3 30 26 76 -15 89 -78 11 -55 -17 -125 -71 -181 -32 -33 -51 -63 -59 -96 -9
-31 -27 -61 -52 -87 -22 -22 -42 -48 -46 -58 -11 -37 -59 -12 -73 39 -11 38
-2 43 69 43 48 0 48 0 37 26 -11 24 -16 25 -57 19 -25 -3 -62 -7 -82 -8 -44
-2 -57 -13 -29 -22 20 -6 20 -7 3 -30 -9 -14 -24 -25 -32 -25 -11 0 -11 -3 -2
-12 18 -18 15 -27 -7 -23 -14 2 -22 -6 -32 -37 -7 -22 -19 -42 -26 -45 -15 -6
-18 -43 -4 -43 5 0 7 -9 4 -19 -3 -13 2 -21 16 -26 12 -3 21 -13 21 -20 0 -11
6 -12 25 -5 14 5 26 6 26 2 1 -4 2 -13 3 -21 0 -8 6 -16 12 -18 7 -2 10 6 6
23 -5 26 -3 27 28 21 28 -6 31 -5 20 8 -26 31 1 14 35 -22 l34 -38 2 30 c2 27
3 26 9 -10 7 -39 7 -39 9 -7 0 17 6 32 11 32 6 0 10 6 10 14 0 24 28 27 37 3
6 -19 8 -18 13 13 l5 35 18 -26 c10 -15 22 -55 29 -90 6 -35 17 -76 24 -91 11
-21 11 -28 1 -31 -8 -4 -9 -8 -2 -14 17 -13 37 -92 29 -115 -3 -11 -2 -18 3
-15 8 5 20 -17 37 -67 4 -10 9 -16 12 -14 3 3 -1 22 -10 41 -19 47 -44 162
-60 275 -10 75 -10 92 1 92 7 0 10 -6 7 -14 -3 -8 -1 -17 4 -20 6 -3 12 1 16
9 3 8 13 15 23 14 11 0 13 -3 6 -6 -7 -2 -13 -14 -13 -26 0 -19 2 -19 15 7 19
36 20 34 -12 39 l-28 4 26 2 c55 3 37 71 -18 71 -16 0 -37 6 -47 13 -17 12
-16 14 13 14 49 0 80 21 87 61 5 26 3 37 -10 44 -20 11 -21 28 -1 28 11 0 13
8 9 30 -4 17 -2 30 4 30 14 0 22 52 11 67 -6 6 -8 29 -5 50 3 21 8 87 11 148
4 60 11 115 16 121 7 9 1 21 -20 43 -35 36 -37 36 -57 16 -21 -21 -9 -34 25
-29 26 4 29 3 24 -18 -12 -50 -39 -63 -49 -24 -4 17 -15 27 -35 31 -26 6 -35
20 -30 48 1 9 -1 9 -18 -2z m129 -111 c0 -5 -4 -10 -10 -10 -5 0 -10 5 -10 10
0 6 5 10 10 10 6 0 10 -4 10 -10z m-445 -610 c-3 -5 -12 -10 -18 -10 -7 0 -6
4 3 10 19 12 23 12 15 0z"/>
<path d="M4970 3759 c0 -5 5 -7 10 -4 6 3 10 8 10 11 0 2 -4 4 -10 4 -5 0 -10
-5 -10 -11z"/>
<path d="M4806 3735 c4 -9 0 -15 -9 -15 -8 0 -18 -6 -20 -12 -3 -8 -6 -6 -6 4
-1 14 -5 13 -27 -7 -22 -21 -30 -23 -42 -13 -10 8 -13 8 -9 2 4 -7 -3 -11 -20
-11 -14 0 -30 -8 -35 -17 -11 -20 -35 -20 -82 -1 -35 15 -36 15 -42 -10 -3
-13 -15 -27 -25 -30 -10 -4 -19 -12 -19 -19 0 -6 -8 -12 -19 -12 -29 0 -13 33
20 40 30 6 41 26 14 26 -8 0 -15 6 -15 14 0 10 -7 12 -22 8 -30 -7 -36 -17
-32 -54 3 -24 0 -29 -14 -26 -9 2 -16 11 -14 20 1 9 -2 19 -8 23 -6 3 -10 -4
-10 -18 0 -33 -10 -39 -36 -22 -20 13 -23 12 -28 -1 -3 -9 -11 -12 -18 -8 -13
8 -37 13 -73 16 -11 1 -23 7 -27 12 -5 7 -8 4 -8 -6 0 -9 5 -20 10 -23 16 -10
11 -21 -10 -21 -12 0 -20 7 -20 18 0 24 -35 42 -58 29 -16 -10 -15 -11 3 -12
11 -1 22 -1 25 -1 3 0 5 -15 5 -33 0 -18 -4 -33 -10 -32 -5 1 -10 -10 -10 -25
1 -16 -3 -24 -10 -20 -5 4 -19 5 -29 3 -17 -2 -18 2 -13 36 3 21 9 48 13 61 5
18 3 21 -10 16 -9 -3 -16 -1 -16 6 0 6 -5 8 -11 4 -6 -3 -9 -15 -6 -25 3 -12
0 -19 -8 -19 -8 0 -11 -8 -8 -20 3 -11 12 -20 19 -20 17 0 19 -37 2 -43 -10
-3 -10 -7 0 -19 18 -22 4 -48 -29 -55 -17 -3 -26 -10 -23 -18 3 -7 -4 -15 -15
-18 -14 -3 -19 -10 -15 -21 3 -9 3 -16 0 -16 -4 0 -11 11 -16 25 -6 17 -14 23
-25 19 -14 -6 -13 -9 5 -21 26 -19 26 -33 -2 -33 -17 0 -19 -3 -10 -12 8 -8
15 -8 25 0 7 6 23 9 35 6 17 -5 22 -1 28 20 3 14 9 25 13 24 10 -2 46 15 53
26 4 5 2 18 -3 28 -7 13 -5 20 10 28 30 15 33 13 26 -22 -6 -26 -5 -30 9 -25
9 4 16 3 16 -2 0 -12 -26 -32 -32 -25 -3 3 -8 -7 -12 -21 -7 -28 -21 -33 -30
-10 -3 8 -10 15 -15 15 -17 0 -25 -49 -11 -65 7 -9 8 -15 2 -15 -5 0 -13 7
-16 16 -8 20 -26 8 -26 -18 0 -16 5 -19 25 -16 27 6 43 -6 25 -17 -6 -4 -8
-11 -5 -16 10 -15 22 -10 27 9 5 18 38 27 38 10 0 -4 -7 -8 -15 -8 -25 0 -5
-29 23 -32 18 -2 35 -15 51 -40 13 -21 31 -38 38 -38 8 0 11 -4 8 -10 -3 -5 3
-15 15 -22 11 -7 20 -17 20 -22 0 -5 8 -14 17 -21 23 -17 45 -95 31 -112 -6
-7 -17 -13 -24 -13 -12 0 -12 -4 1 -24 18 -26 19 -25 -63 -41 -13 -2 -32 -16
-43 -30 -24 -30 -39 -32 -39 -5 0 11 3 19 8 19 21 -4 32 3 32 20 0 11 6 21 13
24 6 2 9 7 6 11 -4 4 -18 -4 -32 -18 -15 -14 -35 -26 -47 -26 -31 0 -28 -48 5
-60 31 -12 31 -13 2 -44 -22 -24 -40 -28 -62 -14 -6 3 -21 0 -35 -8 -14 -7
-20 -13 -15 -14 6 0 11 -9 12 -19 1 -13 -3 -18 -11 -15 -10 4 -12 -2 -9 -20 4
-20 0 -28 -18 -35 -14 -5 -25 -5 -27 0 -7 17 -30 9 -35 -11 -3 -11 -1 -20 4
-20 5 0 9 -5 9 -11 0 -6 -7 -8 -15 -5 -21 8 -35 -31 -24 -69 11 -38 12 -35 -6
-35 -8 0 -16 -6 -17 -12 -5 -43 -1 -64 12 -75 23 -18 0 -49 -34 -45 -18 3 -26
-1 -26 -12 0 -12 7 -15 24 -12 17 3 27 -2 36 -19 14 -25 7 -45 -16 -45 -8 0
-14 -7 -14 -15 0 -9 -11 -27 -24 -40 -43 -43 -69 -111 -62 -163 5 -40 4 -44
-7 -28 -11 16 -13 0 -10 -103 2 -70 0 -121 -6 -121 -5 0 -11 7 -15 15 -6 17
-36 21 -36 5 0 -5 5 -10 10 -10 18 0 11 -61 -10 -90 -26 -36 -36 -86 -21 -103
13 -16 -6 -67 -25 -67 -6 0 -17 -7 -24 -15 -10 -12 -10 -15 3 -15 9 0 35 18
58 40 43 41 51 45 62 34 9 -9 77 -13 77 -4 0 3 -16 12 -35 18 -23 9 -32 18
-28 27 8 21 24 18 30 -5 6 -23 8 -24 33 -10 17 9 18 7 13 -25 -6 -39 9 -47 29
-15 7 11 21 20 30 20 10 0 18 5 18 11 0 7 -11 9 -30 6 -28 -6 -30 -5 -27 25 2
32 27 53 27 24 0 -9 11 -18 25 -22 14 -3 22 -11 19 -16 -8 -12 16 -29 29 -21
5 3 -1 15 -12 27 -26 28 -16 79 17 84 25 4 29 -10 7 -28 -8 -7 -15 -17 -15
-22 0 -6 7 -8 15 -4 8 3 15 1 15 -3 0 -5 8 -8 18 -7 12 2 17 12 17 37 0 19 4
40 9 47 11 18 0 27 -17 13 -8 -6 -30 -10 -48 -9 -19 1 -46 -2 -61 -6 -25 -7
-27 -6 -24 20 2 15 15 38 30 51 20 16 25 29 21 43 -4 13 -2 20 6 20 7 0 4 6
-7 14 -11 8 -15 18 -10 23 5 4 11 2 13 -4 3 -7 11 -13 18 -13 11 0 13 -11 8
-47 -3 -27 -10 -51 -16 -54 -14 -10 1 -29 18 -23 7 3 12 14 10 25 -2 10 1 19
6 19 23 0 39 30 36 67 -2 37 -1 38 28 35 39 -5 42 -9 24 -28 -10 -9 -14 -26
-11 -44 5 -32 19 -40 28 -15 3 8 14 17 25 20 11 4 17 11 13 16 -3 6 0 17 7 25
10 12 9 13 -3 9 -9 -4 -18 0 -21 9 -7 18 15 27 52 20 32 -7 51 -34 24 -34 -9
0 -13 -3 -10 -7 4 -3 0 -14 -8 -23 -22 -25 1 -32 43 -14 31 13 32 14 18 36
-13 21 -13 27 1 56 9 19 22 36 30 39 7 3 13 19 13 35 0 21 6 31 20 35 23 6 24
9 9 69 -8 32 -15 42 -22 35 -6 -6 -19 -11 -28 -11 -10 0 -20 -4 -23 -9 -3 -4
6 -6 19 -3 20 3 25 0 25 -17 0 -11 -4 -21 -10 -21 -14 0 -12 -27 3 -34 6 -3 1
-3 -13 0 -25 7 -25 6 -6 -14 16 -19 17 -22 3 -28 -9 -3 -14 -11 -11 -18 2 -6
-5 -22 -17 -35 -18 -19 -29 -22 -59 -18 -20 2 -43 1 -51 -3 -8 -4 -26 -10 -41
-14 -21 -5 -28 -3 -28 8 0 8 7 19 16 24 11 6 13 11 5 16 -14 9 -31 -1 -31 -17
0 -21 -55 -46 -75 -35 -9 6 -32 8 -51 5 -32 -5 -46 5 -24 18 6 4 8 10 5 15 -5
8 29 1 69 -16 16 -6 18 -4 14 14 -4 13 -1 25 6 30 19 11 35 67 25 83 -5 9 -9
9 -9 2 0 -6 -8 -9 -19 -6 -12 3 -20 -2 -24 -16 -8 -31 -26 -26 -23 7 3 23 8
27 35 27 17 0 35 6 40 13 6 10 17 11 41 5 40 -10 51 -32 21 -40 -28 -7 -27
-23 2 -23 22 -1 22 -1 2 -16 -11 -8 -25 -12 -32 -10 -7 3 -10 -1 -6 -10 7 -19
37 -18 56 4 23 26 33 72 16 83 -20 12 17 38 45 32 17 -4 18 -3 6 6 -13 9 -13
14 -2 32 9 14 10 25 4 31 -6 6 -1 19 14 35 13 14 24 35 24 46 0 13 5 17 15 13
17 -6 21 19 5 29 -5 3 -10 1 -10 -4 0 -6 -5 -11 -11 -11 -7 0 -9 11 -5 30 6
33 0 36 -27 15 -11 -7 -26 -11 -35 -8 -12 4 -14 3 -7 -5 6 -5 19 -12 29 -14
26 -4 32 -26 9 -36 -22 -9 -31 -37 -8 -29 24 10 18 -9 -10 -27 -23 -15 -25
-15 -40 6 -8 12 -15 28 -15 34 0 7 -6 15 -12 17 -10 4 -10 6 0 6 7 1 11 5 8
10 -3 5 1 14 9 21 8 7 15 19 15 27 0 13 -3 13 -25 -1 -27 -18 -55 -21 -55 -6
0 5 -6 7 -14 4 -9 -3 -15 4 -18 20 -3 16 0 27 9 30 8 3 11 10 8 16 -3 5 -1 10
5 10 7 0 9 8 5 20 -7 22 18 70 35 70 16 0 11 -22 -7 -36 -17 -13 -17 -13 1
-14 18 0 18 -1 3 -18 -10 -10 -17 -27 -17 -38 0 -16 4 -15 28 11 22 22 28 38
26 63 -1 18 2 30 7 26 5 -3 9 0 9 6 0 11 50 34 57 26 9 -8 -8 -46 -18 -41 -5
4 -9 -3 -9 -14 0 -12 -5 -21 -11 -21 -7 0 -9 -12 -7 -30 3 -17 1 -33 -4 -36
-15 -10 -8 -24 13 -24 17 0 20 4 15 24 -5 19 -1 26 14 31 20 6 28 35 10 35 -5
0 -10 5 -10 11 0 8 5 8 15 -1 19 -16 30 8 21 46 -5 19 -1 30 16 44 l23 19 -27
1 c-16 0 -28 -5 -28 -11 0 -6 -13 -8 -30 -5 -19 3 -33 -1 -38 -10 -4 -8 -27
-17 -51 -20 -31 -4 -41 -3 -37 5 4 6 16 11 27 11 11 0 19 7 19 18 0 13 2 14 9
4 6 -10 12 -7 25 12 9 14 23 26 31 26 8 0 15 5 15 11 0 7 8 18 18 26 15 13 15
13 -8 7 -14 -4 -41 -17 -60 -29 -45 -28 -99 -49 -106 -42 -3 3 28 39 70 81 67
67 80 75 105 70 25 -5 29 -3 34 22 l5 28 -19 -25 -19 -24 0 25 c0 31 31 78 48
73 6 -3 12 -14 12 -26 1 -20 1 -21 11 -4 6 10 8 24 5 32 -3 8 2 14 12 14 50 1
84 8 91 20 6 9 20 12 40 9 17 -2 31 -1 31 3 0 4 14 9 30 11 38 6 41 -17 5 -34
-19 -9 -28 -9 -37 0 -15 15 -32 16 -23 2 3 -5 2 -10 -4 -10 -5 0 -11 3 -14 8
-2 4 -2 1 -1 -5 2 -7 -6 -18 -18 -24 -17 -9 -23 -8 -30 5 -9 15 -12 14 -34 -9
-26 -28 -29 -40 -15 -50 5 -3 17 5 25 17 9 12 16 17 16 11 0 -14 60 1 71 18 7
12 84 17 96 6 3 -4 13 -7 20 -7 12 0 11 3 -2 16 -18 19 -17 45 4 52 8 3 11 0
7 -6 -3 -6 -2 -13 4 -17 5 -3 10 2 10 11 0 17 1 16 13 -1 9 -11 19 -15 27 -10
10 6 12 1 7 -23 -5 -25 -3 -32 9 -32 12 0 15 -6 10 -22 -3 -13 -6 -31 -6 -41
0 -10 -4 -15 -10 -12 -5 3 -10 1 -10 -4 0 -6 -8 -11 -19 -11 -10 0 -21 -8 -24
-19 -4 -16 -1 -17 29 -11 19 4 34 5 34 2 0 -14 -43 -50 -55 -46 -9 4 -12 -4
-10 -27 3 -36 25 -53 25 -20 0 12 4 21 9 21 19 0 23 -22 10 -52 -9 -23 -10
-33 -2 -35 16 -6 4 -33 -29 -66 l-28 -29 0 26 c0 13 4 36 10 51 8 20 5 35 -11
70 -17 35 -18 48 -9 65 6 12 10 23 8 24 -2 1 -10 7 -19 14 -14 10 -17 9 -22
-8 -3 -11 -1 -18 4 -14 11 6 12 -16 1 -32 -4 -6 -14 -13 -23 -16 -12 -5 -15
-14 -11 -35 l5 -28 9 28 c11 30 32 36 42 11 9 -23 8 -26 -6 -18 -9 5 -9 2 1
-9 7 -9 9 -17 4 -17 -10 0 -13 -16 -13 -57 0 -12 -8 -26 -17 -31 -20 -12 -10
-44 12 -36 22 9 19 -13 -4 -25 -10 -6 -20 -8 -23 -6 -2 2 -9 -5 -16 -15 -11
-18 -9 -19 10 -17 16 1 22 -3 19 -13 -2 -8 -3 -23 -3 -32 0 -10 -3 -18 -8 -18
-4 0 -11 -16 -14 -35 -6 -29 -11 -35 -31 -35 -14 0 -25 -4 -25 -10 0 -5 10 -9
21 -7 35 3 33 -20 -2 -37 -18 -9 -39 -16 -47 -16 -12 0 -12 3 1 23 9 14 12 29
7 38 -10 17 -4 29 27 50 20 14 21 17 8 42 -14 26 -11 57 4 57 13 0 30 47 24
68 -3 13 3 28 16 41 22 22 27 41 12 41 -5 0 -14 12 -19 28 -9 23 -11 24 -11 5
-1 -12 -7 -24 -13 -26 -8 -3 -5 -6 5 -6 16 -1 15 -5 -7 -33 -13 -18 -27 -46
-30 -63 -3 -16 -3 -24 0 -17 8 16 34 16 34 -1 0 -13 -24 -29 -62 -41 -22 -7
-42 -43 -28 -51 5 -3 10 1 10 9 0 9 7 16 15 16 8 0 15 -9 15 -20 0 -11 -4 -20
-10 -20 -5 0 -7 -7 -4 -15 4 -8 1 -15 -6 -15 -6 0 -9 -4 -5 -10 3 -5 -7 -17
-22 -27 -15 -10 -31 -22 -35 -28 -5 -6 -11 -5 -18 5 -7 11 -4 19 10 30 27 21
40 61 26 83 -8 14 -8 20 4 27 8 5 11 12 7 16 -4 4 -13 2 -19 -4 -7 -7 -25 -12
-41 -12 -19 0 -27 -4 -24 -12 2 -7 12 -12 21 -10 20 4 34 -27 16 -38 -9 -6 -9
-9 0 -15 8 -5 5 -11 -9 -22 -12 -8 -21 -20 -21 -28 0 -7 -10 -15 -22 -17 -28
-4 -21 -23 7 -22 11 1 23 -4 27 -9 5 -8 13 -6 25 5 10 9 30 16 45 15 33 -2 34
-4 11 -30 -15 -15 -15 -19 -3 -16 8 1 23 -1 33 -4 9 -4 24 -9 32 -12 19 -6 20
-25 1 -25 -8 0 -18 -5 -22 -12 -4 -6 -3 -8 4 -4 20 12 21 -10 1 -27 -11 -10
-17 -22 -14 -27 3 -6 -1 -10 -9 -10 -9 0 -16 -5 -16 -10 0 -6 -5 -9 -11 -8 -6
2 -13 -1 -15 -7 -2 -5 6 -11 19 -11 12 -1 31 -3 42 -4 11 -2 36 0 57 4 27 6
36 5 35 -6 0 -7 1 -26 2 -43 1 -26 3 -28 14 -14 7 9 18 14 25 12 17 -6 15 -23
-3 -23 -8 0 -15 -5 -15 -11 0 -5 6 -7 13 -4 6 4 4 0 -5 -8 -10 -8 -15 -17 -11
-20 3 -4 -4 -15 -16 -26 -12 -10 -21 -23 -20 -27 3 -20 -2 -35 -10 -29 -5 3
-12 -3 -16 -14 -3 -11 -13 -22 -21 -25 -8 -3 -12 -11 -8 -17 5 -8 9 -8 14 1 9
14 40 7 40 -9 0 -5 -10 -13 -21 -16 -12 -4 -17 -10 -12 -14 6 -3 13 -16 17
-28 7 -20 4 -23 -23 -23 -25 0 -30 5 -36 33 -4 17 -12 38 -18 45 -7 9 2 23 34
52 24 22 38 40 31 40 -9 0 -5 11 11 33 12 17 21 42 20 53 -4 19 -7 20 -27 11
-26 -12 -47 -52 -39 -73 3 -9 -2 -14 -14 -14 -28 0 -44 -19 -30 -35 7 -7 19
-10 27 -7 8 3 12 2 9 -2 -4 -4 -16 -8 -28 -11 -24 -4 -53 -30 -45 -38 3 -3 12
-3 20 0 8 3 14 -1 14 -11 0 -9 -7 -16 -16 -16 -11 0 -14 -5 -10 -16 3 -9 6
-20 6 -25 0 -5 10 -9 22 -9 12 0 18 -3 15 -7 -12 -11 50 -42 72 -36 15 4 21 1
21 -11 0 -15 4 -18 33 -20 6 -1 16 -5 20 -11 5 -6 7 0 4 13 -4 17 -1 22 14 22
10 0 19 -6 19 -12 1 -8 7 -5 15 6 10 14 12 24 4 40 -9 18 -8 19 3 5 18 -22 55
-30 62 -13 6 16 56 19 56 4 0 -5 10 -9 23 -9 12 1 36 -1 54 -5 23 -4 49 1 92
20 34 15 61 31 61 36 0 8 73 5 125 -5 27 -6 63 12 70 35 7 21 41 42 55 33 5
-3 11 -1 15 5 3 5 1 10 -4 10 -6 0 -11 5 -11 10 0 7 21 10 55 8 44 -2 55 -6
55 -20 0 -11 5 -15 15 -12 8 4 15 1 15 -5 0 -6 5 -11 11 -11 8 0 8 5 -1 15
-11 13 -7 19 11 17 4 -1 10 9 13 22 3 13 18 29 35 36 17 7 28 17 25 25 -4 9 7
12 41 11 43 -1 48 -4 68 -40 16 -28 19 -40 10 -43 -7 -3 -13 -9 -13 -14 0 -5
6 -9 13 -9 13 0 37 45 37 69 0 14 -1 14 -10 1 -7 -11 -8 -5 -4 20 8 43 10 44
36 45 26 0 38 38 33 104 -2 25 -4 52 -4 59 -1 6 -12 22 -26 34 -14 12 -25 29
-25 37 -1 9 -14 39 -30 66 -27 47 -61 115 -131 260 -16 33 -29 68 -29 78 0 22
-25 71 -56 113 -13 17 -24 38 -24 47 0 23 -63 119 -90 137 -18 13 -60 82 -60
100 0 3 13 14 30 23 16 10 37 31 47 47 9 17 22 30 29 30 16 0 49 39 40 47 -4
5 -12 0 -17 -9 -5 -10 -18 -15 -29 -13 -12 2 -18 0 -14 -6 3 -6 -5 -7 -22 -3
-19 5 -25 4 -20 -5 4 -6 1 -11 -7 -11 -22 0 -30 30 -9 31 9 1 4 5 -13 9 -24 6
-26 8 -7 9 12 0 22 7 22 14 0 6 20 21 45 32 47 20 66 42 104 117 18 36 22 57
18 89 -9 65 -23 67 -20 2 3 -62 -19 -123 -44 -123 -9 0 -29 -15 -47 -33 -17
-19 -47 -40 -66 -47 -19 -7 -39 -17 -45 -22 -30 -26 -80 10 -70 51 4 14 10 28
14 31 15 10 30 66 30 110 0 80 -32 160 -65 160 -9 0 -10 5 -1 25 10 21 13 22
19 7 4 -11 7 -12 7 -4 1 8 14 26 29 40 16 15 31 35 35 45 8 21 27 23 27 2 0
-8 4 -15 9 -15 5 0 7 -9 4 -20 -4 -13 0 -20 9 -20 11 0 14 8 10 27 -5 25 -12
36 -59 92 l-23 26 -45 -47 c-26 -27 -50 -48 -56 -48 -5 0 -14 11 -19 25 -5 14
-16 25 -25 25 -18 0 -20 -16 -2 -23 9 -4 9 -6 0 -6 -6 -1 -14 3 -17 7 -9 14
-68 1 -62 -14 3 -7 0 -14 -7 -17 -11 -3 -87 69 -87 84 0 9 60 33 80 32 8 -1
27 8 40 19 16 13 19 18 8 14 -10 -3 -18 -1 -18 3 0 5 5 11 10 13 6 2 1 9 -10
15 -16 11 -18 10 -14 -2z m-511 -175 c0 -8 -10 -16 -22 -18 -22 -3 -32 16 -16
32 12 11 38 2 38 -14z m105 -17 c0 -39 -19 -103 -30 -103 -12 0 -13 27 -1 34
5 3 11 17 14 32 6 31 -14 41 -49 26 -19 -9 -24 -9 -24 1 0 11 42 29 83 36 4 0
7 -11 7 -26z m-197 -6 c-4 -7 -6 -20 -5 -29 2 -10 -3 -18 -11 -18 -8 0 -18 -7
-21 -16 -3 -8 -10 -13 -15 -9 -6 3 -14 -3 -20 -12 -10 -17 -10 -16 -11 3 0 11
10 30 23 41 12 11 28 29 36 41 15 21 37 20 24 -1z m352 3 c3 -5 -3 -10 -14
-10 -12 0 -21 -5 -21 -11 0 -5 -5 -7 -11 -4 -6 5 -4 12 8 21 22 16 30 17 38 4z
m-260 -40 c-3 -5 -14 -10 -23 -10 -15 0 -15 2 -2 10 20 13 33 13 25 0z m32 -6
c-3 -4 0 -16 8 -27 13 -18 12 -23 -8 -42 -12 -12 -27 -30 -34 -41 -9 -15 -10
-12 -3 19 4 21 14 45 22 54 10 13 10 17 0 20 -14 5 -6 23 10 23 6 0 8 -3 5 -6z
m-42 -24 c3 -5 1 -10 -4 -10 -6 0 -11 5 -11 10 0 6 2 10 4 10 3 0 8 -4 11 -10z
m-42 -39 c-7 -27 -30 -22 -25 5 2 13 9 21 17 18 7 -3 11 -13 8 -23z m184 3 c4
-10 -4 -25 -21 -40 -14 -14 -26 -32 -26 -40 0 -8 -5 -12 -11 -9 -6 4 -17 -1
-24 -11 -9 -13 -14 -14 -15 -6 0 7 7 21 16 29 8 9 13 25 11 35 -6 23 17 35 37
19 11 -9 12 -6 8 14 -5 28 15 35 25 9z m81 -13 c-2 -9 -11 -15 -21 -15 -16 2
-19 -4 -21 -51 -1 -11 -7 -19 -14 -17 -7 1 -15 -5 -18 -13 -8 -19 -24 -20 -24
-1 0 8 9 21 20 29 12 8 20 18 19 23 -4 25 3 44 16 44 8 0 15 7 15 15 0 9 6 12
15 8 9 -3 14 -13 13 -22z m76 -95 c-3 -14 -11 -26 -16 -26 -5 0 -7 6 -4 13 3
6 9 20 12 30 10 27 16 13 8 -17z m-418 -3 c-10 -10 -19 5 -10 18 6 11 8 11 12
0 2 -7 1 -15 -2 -18z m-6 -13 c16 -10 8 -23 -15 -26 -9 -1 -15 6 -15 17 0 21
8 23 30 9z m-53 -22 c-3 -8 -6 -5 -6 6 -1 11 2 17 5 13 3 -3 4 -12 1 -19z
m303 -19 c0 -4 -7 -6 -15 -3 -8 4 -15 1 -15 -5 0 -6 -7 -11 -15 -11 -12 0 -12
3 3 18 17 18 42 19 42 1z m65 11 c3 -5 1 -10 -4 -10 -6 0 -11 5 -11 10 0 6 2
10 4 10 3 0 8 -4 11 -10z m-231 -16 c9 -22 8 -24 -9 -18 -8 4 -15 2 -15 -4 0
-6 6 -13 13 -15 9 -4 9 -6 0 -6 -17 -1 -23 12 -16 37 6 26 18 28 27 6z m-129
-4 c3 -5 1 -10 -4 -10 -6 0 -11 5 -11 10 0 6 2 10 4 10 3 0 8 -4 11 -10z m85
-31 c0 -6 -4 -7 -10 -4 -5 3 -10 11 -10 16 0 6 5 7 10 4 6 -3 10 -11 10 -16z
m140 11 c0 -5 -4 -10 -10 -10 -5 0 -10 5 -10 10 0 6 5 10 10 10 6 0 10 -4 10
-10z m202 -8 c-7 -2 -9 -9 -6 -14 4 -7 2 -8 -4 -4 -6 4 -9 13 -6 21 4 8 11 12
17 8 8 -5 7 -8 -1 -11z m-122 -14 c0 -19 -2 -20 -10 -8 -13 19 -13 30 0 30 6
0 10 -10 10 -22z m-114 -20 c-1 -25 -6 -32 -24 -33 -12 -1 -22 2 -22 7 0 4 4
8 9 8 5 0 12 11 15 25 9 36 24 31 22 -7z m202 14 c2 -7 -3 -12 -12 -12 -9 0
-16 7 -16 16 0 17 22 14 28 -4z m68 -20 c-18 -16 -19 -16 -12 1 3 10 6 24 6
30 0 8 4 7 12 -1 10 -9 8 -16 -6 -30z m-99 -17 c-2 -5 3 -15 12 -22 14 -11 14
-12 -1 -13 -10 0 -26 -10 -38 -22 l-20 -22 0 22 c0 11 5 24 10 27 6 3 10 23
10 43 1 35 1 36 15 17 9 -10 14 -24 12 -30z m-87 17 c0 -10 5 -23 12 -30 9 -9
7 -12 -11 -12 -13 0 -30 -8 -38 -17 -13 -16 -13 -16 -7 7 4 14 11 27 15 28 5
2 9 12 9 23 0 10 5 19 10 19 6 0 10 -8 10 -18z m160 -8 c0 -8 -5 -12 -10 -9
-6 4 -8 11 -5 16 9 14 15 11 15 -7z m160 -14 c0 -5 -2 -10 -4 -10 -3 0 -8 5
-11 10 -3 6 -1 10 4 10 6 0 11 -4 11 -10z m-85 -46 c-13 -25 -15 -26 -15 -7 0
32 11 56 22 45 5 -5 2 -21 -7 -38z m72 4 c-3 -8 -6 -5 -6 6 -1 11 2 17 5 13 3
-3 4 -12 1 -19z m-157 -8 c0 -5 -4 -10 -10 -10 -5 0 -10 5 -10 10 0 6 5 10 10
10 6 0 10 -4 10 -10z m-232 -66 c-10 -10 -28 6 -28 24 0 15 1 15 17 -1 9 -9
14 -19 11 -23z m89 6 c2 -23 -12 -35 -22 -20 -8 13 1 40 13 40 4 0 8 -9 9 -20z
m400 -12 c-3 -8 -6 -5 -6 6 -1 11 2 17 5 13 3 -3 4 -12 1 -19z m-343 -20 c15
-10 0 -22 -18 -15 -9 4 -12 14 -8 29 4 16 7 18 10 8 3 -8 10 -18 16 -22z m87
-18 c4 0 6 7 3 15 -4 8 -1 15 5 15 16 0 13 -26 -5 -45 -15 -15 -15 -17 2 -30
18 -13 17 -14 -11 -21 -17 -4 -33 -12 -37 -18 -4 -6 -10 -3 -14 8 -5 12 -2 23
8 30 22 16 18 66 -4 66 -21 0 -24 16 -5 23 6 3 20 -6 30 -19 10 -13 23 -24 28
-24z m194 40 c-3 -5 -13 -10 -21 -10 -8 0 -14 5 -14 10 0 6 9 10 21 10 11 0
17 -4 14 -10z m-389 -53 c-2 -50 -35 -117 -58 -117 -16 0 -7 36 13 54 16 14
20 25 15 49 -3 17 -12 34 -18 38 -7 5 -9 12 -4 16 4 4 13 0 21 -10 12 -16 13
-16 18 3 9 36 16 21 13 -33z m297 38 c4 -8 3 -17 -2 -19 -4 -3 -7 -15 -6 -28
2 -25 -31 -61 -47 -52 -6 4 -6 10 1 17 6 6 11 18 11 27 0 20 23 70 31 70 4 0
9 -7 12 -15z m137 -10 c0 -8 -4 -15 -10 -15 -5 0 -10 7 -10 15 0 8 5 15 10 15
6 0 10 -7 10 -15z m-77 -17 c4 -12 2 -25 -2 -28 -5 -3 -11 -14 -14 -25 -2 -11
-4 1 -3 27 1 51 10 62 19 26z m-273 -18 c0 -11 6 -20 13 -20 6 0 -1 -13 -18
-29 -21 -20 -34 -26 -42 -19 -19 16 -16 28 8 28 18 0 21 5 17 30 -3 20 0 30 9
30 7 0 13 -9 13 -20z m590 -70 c0 -5 -4 -10 -10 -10 -5 0 -10 5 -10 10 0 6 5
10 10 10 6 0 10 -4 10 -10z m-178 -30 c-4 -29 -10 -36 -38 -44 -17 -5 -22 -3
-20 11 0 10 9 21 18 25 11 5 15 13 11 24 -4 12 -1 15 13 12 14 -2 18 -10 16
-28z m-72 -15 c-6 -17 -16 -25 -24 -22 -8 3 -23 -1 -35 -10 -12 -8 -28 -12
-36 -9 -8 3 -17 1 -20 -3 -2 -5 5 -11 18 -15 36 -10 47 -7 48 12 1 11 4 8 9
-8 6 -22 8 -23 15 -7 4 9 11 17 17 17 5 0 6 -4 3 -10 -9 -14 8 -13 23 2 7 7
12 8 12 2 0 -23 -35 -41 -73 -38 -21 2 -43 6 -49 10 -7 4 -8 3 -4 -4 5 -9 -9
-12 -48 -12 -55 0 -56 1 -56 29 0 16 6 33 13 40 21 17 121 40 132 30 17 -16
43 -9 48 13 4 12 9 20 12 16 3 -3 1 -18 -5 -33z m130 15 c0 -5 -2 -10 -4 -10
-3 0 -8 5 -11 10 -3 6 -1 10 4 10 6 0 11 -4 11 -10z m30 -16 c0 -8 -5 -12 -10
-9 -6 4 -8 11 -5 16 9 14 15 11 15 -7z m107 -14 c-2 -29 -17 -24 -17 6 0 14 4
23 9 19 6 -3 9 -14 8 -25z m-187 -38 c0 -5 -3 -12 -7 -16 -4 -4 -8 -13 -8 -19
0 -7 -4 -14 -9 -17 -13 -7 -17 32 -4 47 12 15 28 17 28 5z m-225 -62 c3 -5 -1
-10 -9 -10 -9 0 -16 -8 -17 -17 0 -15 -2 -15 -8 2 -5 11 -7 23 -4 28 6 10 31
9 38 -3z m67 -2 c-7 -7 -12 -20 -12 -31 0 -10 -4 -15 -10 -12 -16 10 -11 43 8
48 9 3 19 5 22 6 2 0 -1 -4 -8 -11z m414 -15 c-3 -8 -6 -17 -6 -19 0 -2 -4 -4
-10 -4 -5 0 -10 11 -10 25 0 18 4 23 16 18 8 -3 13 -12 10 -20z m-339 -15 c-3
-8 -6 -5 -6 6 -1 11 2 17 5 13 3 -3 4 -12 1 -19z m288 -16 c-3 -4 -10 0 -15 8
-6 9 -5 17 3 22 13 8 24 -19 12 -30z m-35 1 c0 -13 -3 -13 -15 -3 -8 7 -15 16
-15 21 0 5 7 6 15 3 8 -4 15 -13 15 -21z m-60 -8 c0 -8 -4 -15 -10 -15 -5 0
-10 7 -10 15 0 8 5 15 10 15 6 0 10 -7 10 -15z m-120 -15 c0 -5 -4 -10 -10
-10 -5 0 -10 5 -10 10 0 6 5 10 10 10 6 0 10 -4 10 -10z m-240 -10 c0 -5 -5
-10 -11 -10 -5 0 -7 5 -4 10 3 6 8 10 11 10 2 0 4 -4 4 -10z m296 -12 c-3 -13
-6 -26 -6 -30 0 -5 -6 -8 -12 -8 -7 0 -13 13 -14 30 -1 24 3 30 19 30 15 0 18
-5 13 -22z m-156 2 c0 -5 -4 -10 -10 -10 -5 0 -10 5 -10 10 0 6 5 10 10 10 6
0 10 -4 10 -10z m50 -26 c0 -28 -7 -29 -34 -9 -19 15 -19 15 2 15 16 0 20 4
15 17 -4 11 -3 14 5 9 7 -4 12 -18 12 -32z m-134 -1 c-10 -10 -19 5 -10 18 6
11 8 11 12 0 2 -7 1 -15 -2 -18z m294 12 c0 -8 -4 -15 -10 -15 -5 0 -7 7 -4
15 4 8 8 15 10 15 2 0 4 -7 4 -15z m-380 -5 c0 -5 -4 -10 -10 -10 -5 0 -10 5
-10 10 0 6 5 10 10 10 6 0 10 -4 10 -10z m147 -7 c2 -6 -3 -18 -12 -26 -8 -9
-15 -20 -15 -26 0 -6 -7 -11 -15 -11 -8 0 -15 7 -15 15 0 8 5 15 10 15 6 0 10
8 10 18 0 31 28 42 37 15z m123 7 c0 -5 -2 -10 -4 -10 -3 0 -8 5 -11 10 -3 6
-1 10 4 10 6 0 11 -4 11 -10z m-203 -16 c3 -9 1 -19 -6 -23 -6 -4 -9 -14 -6
-23 3 -8 -1 -21 -10 -28 -14 -11 -14 -14 2 -25 15 -11 15 -13 -5 -19 -12 -4
-22 -14 -22 -23 0 -8 -6 -13 -12 -10 -7 2 -11 11 -9 18 2 8 5 35 7 62 3 36 0
47 -11 47 -8 0 -15 5 -15 10 0 6 4 10 9 10 6 0 13 -4 16 -10 10 -17 25 -11 25
10 0 24 28 27 37 4z m316 -24 c-3 -11 -9 -20 -14 -20 -10 0 -12 24 -2 33 13
13 21 7 16 -13z m-178 -21 c1 -13 4 -30 8 -36 6 -9 2 -13 -12 -13 -12 0 -21
-7 -21 -15 0 -8 -4 -15 -10 -15 -5 0 -10 9 -10 19 0 11 5 23 10 26 6 3 10 20
10 36 0 20 4 29 13 27 6 -3 12 -16 12 -29z m121 4 c-10 -10 -19 5 -10 18 6 11
8 11 12 0 2 -7 1 -15 -2 -18z m321 -25 c-3 -8 -6 -5 -6 6 -1 11 2 17 5 13 3
-3 4 -12 1 -19z m-320 -10 c-3 -8 -6 -5 -6 6 -1 11 2 17 5 13 3 -3 4 -12 1
-19z m278 11 c11 -17 -1 -21 -15 -4 -8 9 -8 15 -2 15 6 0 14 -5 17 -11z m-483
-16 c6 -24 -30 -60 -38 -39 -6 16 12 56 25 56 5 0 11 -8 13 -17z m148 2 c-7
-8 -10 -22 -6 -30 3 -8 1 -15 -4 -15 -6 0 -10 14 -10 30 0 21 5 30 16 30 13 0
14 -3 4 -15z m160 11 c0 -9 -30 -14 -35 -6 -4 6 3 10 14 10 12 0 21 -2 21 -4z
m133 -32 c-3 -8 -10 -14 -15 -14 -6 0 -5 -6 2 -15 7 -8 9 -15 4 -15 -5 0 -2
-5 8 -10 13 -8 14 -14 5 -35 -7 -14 -15 -25 -18 -25 -8 0 -12 52 -9 133 1 15
4 16 15 7 8 -6 11 -18 8 -26z m-63 -21 c-1 -27 -1 -27 -15 -9 -12 16 -12 22
-2 28 17 11 17 11 17 -19z m-73 -18 c8 -22 -6 -33 -17 -15 -13 20 -12 30 0 30
6 0 13 -7 17 -15z m-337 -37 c-21 -23 -24 -36 -14 -62 8 -21 24 -21 24 0 0 15
37 53 52 54 4 0 5 -7 2 -15 -3 -8 -11 -13 -17 -12 -7 1 -12 -5 -13 -13 0 -8
-4 -23 -7 -32 -16 -43 -16 -51 0 -64 16 -12 16 -13 -9 -14 -18 0 -28 -5 -28
-14 0 -21 -21 -31 -30 -16 -5 8 0 28 11 49 18 34 18 36 0 66 -17 30 -17 31 6
68 13 21 28 35 33 32 6 -3 1 -16 -10 -27z m90 12 c0 -5 -4 -10 -10 -10 -5 0
-10 5 -10 10 0 6 5 10 10 10 6 0 10 -4 10 -10z m196 -1 c3 -6 -1 -18 -10 -27
-9 -9 -16 -11 -16 -5 0 6 -3 18 -6 27 -7 18 21 23 32 5z m-346 -19 c0 -10 -31
-23 -38 -15 -8 7 19 35 29 29 5 -3 9 -9 9 -14z m200 10 c0 -5 -4 -10 -10 -10
-5 0 -10 5 -10 10 0 6 5 10 10 10 6 0 10 -4 10 -10z m-270 -28 c-7 -3 -25 -16
-41 -31 -22 -19 -27 -30 -19 -41 8 -13 10 -12 10 3 0 13 6 17 23 15 12 -2 22
-10 22 -18 0 -8 -5 -14 -11 -13 -14 3 -28 -61 -15 -65 19 -6 -1 -32 -25 -32
-12 0 -28 -8 -33 -17 -6 -10 -11 -16 -11 -13 -8 38 -8 50 0 50 19 0 28 44 15
75 -14 35 -10 55 11 55 9 0 13 4 10 9 -3 4 4 17 15 27 16 14 22 15 28 5 6 -10
10 -8 16 6 6 14 8 15 13 4 3 -8 -1 -17 -8 -19z m333 4 c3 -8 -1 -17 -9 -20 -8
-3 -14 -12 -14 -21 0 -17 -16 -20 -25 -5 -3 6 1 13 9 16 9 3 16 15 16 25 0 22
15 25 23 5z m127 4 c0 -5 -4 -10 -10 -10 -5 0 -10 5 -10 10 0 6 5 10 10 10 6
0 10 -4 10 -10z m76 -5 c9 -8 11 -15 5 -15 -6 0 -11 -7 -11 -16 0 -9 -5 -14
-11 -12 -6 2 -10 7 -10 11 1 4 1 16 1 27 0 24 6 25 26 5z m-291 -5 c3 -5 -2
-21 -11 -35 -11 -18 -13 -25 -4 -25 10 0 10 -3 1 -14 -9 -11 -9 -15 1 -18 10
-4 8 -9 -5 -22 -9 -10 -17 -27 -18 -39 l0 -22 -9 23 c-6 13 -6 32 -1 45 5 13
7 35 4 50 -3 17 -1 27 7 27 7 0 9 8 5 20 -4 14 -2 20 9 20 8 0 18 -4 21 -10z
m131 -71 c-5 -4 -6 -11 -2 -17 3 -6 2 -13 -4 -17 -15 -10 -24 23 -10 40 6 8 9
23 5 34 -3 12 -3 26 2 33 5 8 10 -1 13 -27 3 -22 1 -43 -4 -46z m89 34 c-8 -8
-15 -22 -15 -31 0 -13 -2 -14 -9 -4 -11 18 10 61 26 55 10 -4 9 -8 -2 -20z
m-441 -15 c-9 -14 -23 2 -17 18 4 12 8 13 14 3 4 -7 5 -17 3 -21z m56 19 c0
-7 -5 -18 -12 -25 -16 -16 -19 -62 -5 -62 7 0 3 -6 -7 -12 -17 -10 -18 -12 -4
-22 14 -10 11 -13 -18 -22 -27 -9 -34 -8 -34 3 0 7 6 16 13 19 10 3 13 18 10
44 -2 21 1 41 7 45 5 3 10 15 10 26 0 12 7 19 20 19 11 0 20 -6 20 -13z m230
-42 c0 -8 -4 -15 -10 -15 -5 0 -10 -8 -11 -17 0 -15 -2 -15 -8 2 -5 11 -4 25
1 33 14 17 28 15 28 -3z m248 -5 c-7 -10 -14 -17 -17 -15 -4 4 18 35 25 35 2
0 -1 -9 -8 -20z m92 -46 c0 -17 -22 -14 -28 4 -2 7 3 12 12 12 9 0 16 -7 16
-16z m-1165 -14 c0 -8 -6 -14 -14 -12 -12 3 -12 0 -1 -12 9 -12 10 -19 1 -29
-8 -10 -7 -18 3 -32 12 -17 14 -17 29 6 13 18 20 20 28 12 9 -9 9 -16 1 -26
-14 -16 -6 -27 20 -27 10 0 18 -4 18 -9 0 -15 -48 -41 -75 -41 -29 0 -32 16
-8 42 15 17 15 18 0 18 -10 0 -17 -6 -17 -12 0 -24 -17 -39 -47 -43 -26 -3
-30 -1 -26 16 6 21 -22 28 -30 7 -3 -7 -6 3 -6 22 0 32 1 33 13 17 9 -12 16
-14 21 -8 10 17 28 13 21 -4 -3 -8 -1 -15 4 -15 5 0 9 16 8 35 -1 19 4 41 11
49 8 9 8 16 2 20 -5 4 -9 16 -8 27 1 15 7 19 27 17 14 -2 25 -9 25 -18z m1092
4 c7 -18 -32 -62 -44 -50 -4 4 -1 11 6 16 8 4 11 15 8 23 -3 8 -3 18 0 21 11
11 23 6 30 -10z m-200 -19 c-4 -8 -11 -15 -17 -15 -6 0 -6 7 2 20 14 22 24 19
15 -5z m-987 5 c0 -5 -5 -10 -11 -10 -5 0 -7 5 -4 10 3 6 8 10 11 10 2 0 4 -4
4 -10z m1238 -32 c-2 -23 -8 -43 -13 -45 -6 -2 -9 15 -7 42 2 25 8 45 14 45 5
0 8 -19 6 -42z m69 20 c-3 -8 -6 -5 -6 6 -1 11 2 17 5 13 3 -3 4 -12 1 -19z
m-199 -11 c2 -10 -3 -17 -12 -17 -10 0 -16 9 -16 21 0 24 23 21 28 -4z m-263
-17 c-10 -11 -22 -20 -26 -20 -5 0 -1 9 8 20 10 11 22 20 27 20 5 0 1 -9 -9
-20z m205 10 c0 -5 -6 -10 -14 -10 -8 0 -16 -5 -18 -11 -2 -6 -13 -9 -23 -6
-19 5 -19 5 3 12 12 4 22 11 22 16 0 5 7 9 15 9 8 0 15 -4 15 -10z m-1061 -26
c-15 -18 -22 -13 -13 10 3 9 10 13 16 10 5 -3 4 -12 -3 -20z m645 -22 c-16
-19 -44 -20 -44 -2 0 8 52 30 58 25 2 -2 -4 -12 -14 -23z m91 8 c-19 -21 -45
-27 -45 -10 0 11 30 29 49 30 11 0 10 -5 -4 -20z m359 3 c4 -9 2 -21 -3 -26
-5 -5 -7 -16 -4 -23 3 -9 -2 -14 -12 -14 -14 0 -16 6 -11 30 3 17 1 30 -4 30
-6 0 -10 5 -10 10 0 17 37 11 44 -7z m76 -7 c0 -14 -5 -28 -11 -31 -15 -10
-18 -4 -12 28 7 34 23 36 23 3z m-604 2 c4 -7 3 -8 -5 -4 -6 4 -14 1 -17 -8
-3 -8 -14 -18 -25 -21 -29 -9 -23 -31 8 -30 19 0 29 -6 31 -19 2 -10 0 -16 -5
-13 -4 2 -17 -4 -27 -14 -19 -19 -19 -19 5 -19 18 0 21 -2 9 -9 -8 -6 -18 -7
-23 -4 -5 3 -6 -3 -3 -14 7 -23 -18 -51 -29 -33 -3 5 -1 10 4 10 6 0 11 5 11
12 0 6 -10 2 -23 -10 -41 -39 -67 -18 -29 24 27 28 33 52 20 74 -10 16 -7 24
26 54 39 37 60 44 72 24z m374 3 c0 -5 -7 -14 -15 -21 -8 -7 -15 -10 -15 -7 0
3 -3 12 -6 21 -4 12 0 16 15 16 12 0 21 -4 21 -9z m70 -16 c0 -8 6 -15 13 -16
6 -1 1 -4 -13 -8 -29 -9 -45 1 -37 23 8 20 37 21 37 1z m-226 -16 c-3 -5 -10
-7 -15 -3 -5 3 -7 10 -3 15 3 5 10 7 15 3 5 -3 7 -10 3 -15z m-99 -18 c-3 -6
-11 -9 -16 -6 -5 4 -12 -1 -15 -9 -3 -9 -12 -16 -20 -16 -8 0 -11 -6 -8 -15 4
-8 1 -21 -5 -29 -9 -11 -8 -15 6 -21 14 -5 10 -10 -24 -26 -29 -13 -41 -24
-37 -34 7 -17 20 -19 29 -5 3 6 10 10 16 10 18 0 9 -20 -17 -36 -22 -15 -27
-15 -35 -3 -6 10 -9 10 -9 2 0 -7 -7 -13 -15 -13 -8 0 -15 7 -15 15 0 8 7 15
16 15 10 0 14 7 12 23 -1 13 5 32 15 41 9 10 17 31 17 47 0 19 5 29 15 29 8 0
15 7 15 15 0 18 -17 20 -23 3 -3 -10 -8 -10 -16 -2 -22 20 10 35 50 24 27 -8
36 -7 44 5 11 17 31 3 20 -14z m155 3 c0 -9 -7 -14 -17 -12 -25 5 -28 28 -4
28 12 0 21 -6 21 -16z m-90 -14 c0 -11 -4 -19 -9 -17 -5 1 -8 -2 -7 -8 0 -5 5
-9 9 -7 5 1 6 -2 2 -8 -3 -6 -9 -8 -13 -6 -4 2 -18 -14 -32 -35 -23 -38 -40
-50 -40 -29 0 6 8 22 17 36 14 22 14 27 2 35 -11 7 -10 10 8 15 11 3 23 14 26
25 7 25 37 25 37 -1z m170 6 c0 -8 -5 -16 -10 -18 -6 -2 -12 -13 -13 -25 0
-12 -4 -20 -8 -17 -4 2 -14 -5 -22 -17 -8 -11 -18 -16 -21 -11 -3 5 3 21 14
35 11 14 20 35 20 46 0 14 6 21 20 21 11 0 20 -6 20 -14z m360 10 c0 -2 -8
-10 -17 -17 -16 -13 -17 -12 -4 4 13 16 21 21 21 13z m-473 -43 c-2 -13 0 -26
4 -29 15 -9 10 -24 -5 -18 -8 3 -23 -5 -35 -17 -16 -18 -21 -19 -21 -7 0 9 7
21 15 28 8 7 15 28 15 46 0 26 3 32 16 27 10 -4 14 -14 11 -30z m207 28 c3 -5
-1 -11 -9 -15 -8 -3 -15 -13 -15 -21 0 -9 -4 -14 -9 -11 -5 3 -14 -1 -21 -9
-16 -19 -30 -19 -30 0 0 9 11 20 24 24 13 5 26 17 29 25 7 18 23 21 31 7z
m383 -26 c-12 -25 -27 -33 -27 -15 0 12 22 39 32 40 3 0 1 -11 -5 -25z m-47 0
c0 -8 -4 -15 -10 -15 -5 0 -10 7 -10 15 0 8 5 15 10 15 6 0 10 -7 10 -15z
m-70 -35 c0 -13 -5 -18 -15 -14 -16 7 -19 17 -8 27 12 13 23 7 23 -13z m49
-17 c-1 -16 -5 -39 -9 -53 -6 -20 -8 -14 -9 28 -1 28 3 52 9 52 6 0 10 -12 9
-27z m-285 -6 c-3 -8 -13 -18 -21 -22 -20 -7 -40 10 -24 19 6 4 11 1 11 -6 0
-7 7 -2 16 10 17 25 28 24 18 -1z m159 3 c-3 -11 -10 -17 -16 -13 -7 4 -8 -7
-4 -32 4 -25 2 -42 -8 -51 -20 -20 -38 -18 -27 4 5 9 13 38 16 65 6 37 11 47
26 47 13 0 17 -5 13 -20z m-1263 0 c0 -5 -7 -7 -15 -4 -8 4 -15 8 -15 10 0 2
7 4 15 4 8 0 15 -4 15 -10z m1452 -15 c-2 -14 -8 -23 -12 -20 -10 6 -1 45 10
45 4 0 5 -11 2 -25z m-271 -24 c-13 -25 -17 -41 -10 -48 6 -6 5 -14 -6 -23 -8
-7 -15 -19 -15 -26 0 -8 -4 -14 -9 -14 -6 0 -6 12 -1 30 5 16 6 38 3 50 -3 11
0 20 6 20 5 0 8 7 5 15 -5 12 14 28 44 34 1 1 -6 -16 -17 -38z m139 25 c0 -8
3 -22 7 -32 4 -11 3 -15 -4 -11 -7 4 -16 -5 -21 -20 -9 -25 -10 -22 -9 25 1
35 6 52 14 52 7 0 13 -6 13 -14z m-376 -21 c-10 -25 -37 -35 -52 -19 -10 11
-6 15 20 23 18 5 34 10 35 10 1 1 0 -6 -3 -14z m-957 -27 c-3 -7 -5 -2 -5 12
0 14 2 19 5 13 2 -7 2 -19 0 -25z m859 -3 c-3 -9 -11 -13 -16 -10 -8 5 -7 11
1 21 14 18 24 11 15 -11z m214 15 c0 -5 -4 -10 -10 -10 -5 0 -10 5 -10 10 0 6
5 10 10 10 6 0 10 -4 10 -10z m43 -22 c-13 -24 -13 -33 -4 -36 8 -3 5 -9 -8
-19 -12 -8 -21 -24 -21 -36 -1 -20 -2 -20 -11 -5 -7 12 -6 24 1 37 5 11 7 27
4 35 -4 11 -1 16 11 16 12 0 15 5 10 20 -5 15 -2 20 14 20 19 0 19 -1 4 -32z
m-363 14 c0 -13 -23 -32 -39 -32 -11 0 -10 4 4 20 19 21 35 26 35 12z m34 -7
c-4 -8 -10 -15 -15 -15 -4 0 -6 7 -3 15 4 8 10 15 15 15 4 0 6 -7 3 -15z m254
-19 c-22 -16 -24 -30 -4 -23 10 4 13 1 10 -8 -3 -8 -11 -12 -18 -9 -7 3 -13
-1 -14 -8 -5 -43 -9 -58 -15 -64 -11 -11 -20 24 -11 44 4 9 8 22 9 28 0 6 6
18 14 27 7 9 10 20 7 26 -8 13 17 21 29 9 7 -6 4 -14 -7 -22z m-964 8 c8 -21
-1 -34 -20 -27 -8 3 -12 8 -10 11 3 3 1 11 -5 19 -9 10 -7 13 9 13 11 0 23 -7
26 -16z m883 -11 c4 -9 1 -19 -5 -21 -14 -4 -16 -32 -3 -32 5 0 7 -9 4 -20 -3
-11 -10 -20 -15 -20 -5 0 -6 -4 -3 -10 3 -5 0 -10 -9 -10 -8 0 -16 -6 -19 -12
-2 -7 -8 -10 -12 -6 -4 4 -1 18 8 31 14 22 14 27 0 46 -14 21 -14 23 6 28 11
3 18 9 15 14 -6 11 4 29 17 29 5 0 13 -8 16 -17z m-57 -2 c0 -5 -9 -11 -20
-14 -20 -5 -26 3 -13 16 9 10 33 8 33 -2z m580 5 c0 -2 -7 -7 -16 -10 -8 -3
-12 -2 -9 4 6 10 25 14 25 6z m120 0 c0 -3 -4 -8 -10 -11 -5 -3 -10 -1 -10 4
0 6 5 11 10 11 6 0 10 -2 10 -4z m-802 -18 c9 -9 12 -9 12 1 0 7 5 9 10 6 15
-9 12 -45 -3 -45 -8 0 -22 -9 -32 -20 -12 -14 -14 -20 -5 -20 7 0 1 -12 -14
-27 -19 -19 -26 -34 -22 -49 6 -24 -17 -53 -29 -34 -3 5 -2 10 3 10 5 0 12 21
15 47 3 26 10 49 16 51 6 2 8 8 5 14 -3 5 4 19 17 31 14 13 18 22 11 25 -13 4
-16 22 -4 22 4 0 13 -5 20 -12z m610 -8 c-7 -11 -16 -20 -20 -20 -11 0 -10 9
5 25 18 21 29 18 15 -5z m-674 -11 c6 -5 1 -11 -10 -15 -25 -10 -35 -25 -29
-45 4 -10 -7 -26 -29 -43 -19 -14 -37 -26 -40 -26 -15 0 -3 27 21 45 24 20 25
24 14 55 -9 26 -9 35 1 41 14 9 58 1 72 -12z m812 -1 c-3 -13 -6 -31 -6 -40 0
-25 -16 -23 -23 3 -3 12 0 22 8 25 8 3 11 12 8 20 -3 8 0 14 7 14 8 0 10 -8 6
-22z m-222 -13 c-4 -8 -11 -15 -16 -15 -6 0 -5 6 2 15 7 8 14 15 16 15 2 0 1
-7 -2 -15z m166 5 c0 -6 -4 -18 -9 -28 -5 -9 -13 -26 -17 -37 -7 -19 -8 -18
-12 5 -2 13 1 26 7 28 6 2 11 12 11 23 0 10 5 19 10 19 6 0 10 -5 10 -10z
m-70 -25 c0 -8 -7 -15 -15 -15 -8 0 -15 7 -15 15 0 8 7 15 15 15 8 0 15 -7 15
-15z m-560 1 c0 -3 -4 -8 -10 -11 -5 -3 -10 -1 -10 4 0 6 5 11 10 11 6 0 10
-2 10 -4z m373 -11 c-3 -9 -8 -14 -10 -11 -3 3 -2 9 2 15 9 16 15 13 8 -4z
m117 -14 c0 -10 -7 -21 -15 -25 -8 -3 -15 -10 -15 -16 0 -6 5 -8 10 -5 6 3 10
-3 10 -14 0 -12 -6 -21 -14 -21 -19 0 -31 39 -17 53 6 6 11 19 11 29 0 10 7
18 15 18 8 0 15 -9 15 -19z m-1344 -31 c-1 -16 -4 -30 -8 -30 -5 0 -8 -11 -8
-25 0 -14 -5 -25 -11 -25 -6 0 -8 9 -4 21 4 12 8 31 9 43 3 21 13 46 20 46 2
0 3 -13 2 -30z m844 20 c13 -8 12 -10 -2 -10 -12 0 -18 -8 -18 -22 0 -14 -3
-19 -10 -12 -10 10 -3 54 9 54 3 0 13 -5 21 -10z m335 0 c-3 -5 -14 -10 -23
-10 -15 0 -15 2 -2 10 20 13 33 13 25 0z m210 0 c3 -5 1 -10 -4 -10 -6 0 -11
5 -11 10 0 6 2 10 4 10 3 0 8 -4 11 -10z m-129 -11 c3 -6 2 -14 -3 -18 -6 -3
-13 -16 -17 -28 -6 -18 -3 -23 9 -23 21 0 14 -24 -7 -28 -23 -4 -32 32 -18 73
12 36 24 44 36 24z m-226 -30 c-7 -11 -14 -19 -16 -16 -7 7 7 37 17 37 6 0 5
-9 -1 -21z m-44 -14 c-8 -8 -21 -15 -28 -15 -8 1 -6 6 6 15 26 20 42 19 22 0z
m184 4 c0 -7 -8 -18 -17 -25 -15 -11 -15 -15 -5 -22 8 -5 14 -13 14 -17 0 -4
-6 -11 -14 -16 -9 -6 -15 0 -20 19 -5 16 -3 28 2 30 6 2 10 12 10 23 0 10 7
19 15 19 8 0 15 -5 15 -11z m-270 -17 c0 -4 -9 -13 -20 -20 -23 -14 -26 -8 -7
13 13 16 27 19 27 7z m193 -12 c3 -11 1 -18 -3 -15 -5 3 -11 1 -15 -5 -3 -5
-2 -10 4 -10 7 0 7 -8 -1 -25 -16 -36 -33 -31 -35 10 -1 19 3 35 8 35 5 0 9 7
9 15 0 22 27 18 33 -5z m-467 1 c-10 -15 18 -19 33 -4 7 8 16 11 19 8 10 -10
-32 -34 -60 -35 -30 0 -35 9 -16 28 14 14 32 16 24 3z m194 -1 c0 -5 -7 -10
-16 -10 -8 0 -12 5 -9 10 3 6 10 10 16 10 5 0 9 -4 9 -10z m178 -17 c-2 -10
-9 -24 -16 -32 -18 -19 -8 -25 20 -11 21 10 21 10 6 -3 -22 -17 -23 -28 -3
-21 8 4 15 2 15 -3 0 -19 -12 -21 -41 -6 -31 16 -38 37 -14 47 8 3 15 15 15
26 0 11 5 20 10 20 6 0 10 -8 8 -17z m-1018 -27 c0 -3 -4 -8 -10 -11 -5 -3
-10 -1 -10 4 0 6 5 11 10 11 6 0 10 -2 10 -4z m658 -5 c21 -2 13 -28 -10 -36
-14 -4 -18 -8 -11 -11 10 -4 9 -11 -2 -28 -8 -12 -12 -27 -8 -31 5 -5 1 -4 -8
3 -17 13 -24 72 -8 72 5 0 9 7 9 15 0 18 -17 20 -23 3 -2 -7 -8 -10 -12 -6
-14 13 7 28 33 24 15 -2 33 -5 40 -5z m102 -16 c0 -9 -6 -12 -15 -9 -12 5 -15
-2 -15 -31 0 -28 -4 -36 -16 -33 -11 2 -18 15 -19 35 -2 26 2 33 21 37 13 4
24 11 24 17 0 6 5 7 10 4 6 -3 10 -13 10 -20z m100 14 c0 -7 -9 -20 -20 -29
-19 -17 -19 -18 -3 -25 17 -7 17 -8 -2 -15 -38 -16 -46 -12 -43 23 2 19 8 31
16 30 6 -2 12 4 12 12 0 8 9 15 20 15 11 0 20 -5 20 -11z m73 4 c4 -3 -2 -13
-13 -20 -15 -11 -19 -21 -14 -41 4 -16 3 -23 -2 -19 -5 5 -9 12 -10 15 0 4 -4
15 -8 25 -13 28 26 62 47 40z m-903 -52 c0 -5 -9 -11 -20 -14 -20 -5 -26 3
-13 16 9 10 33 8 33 -2z"/>
<path d="M4515 1940 c3 -5 8 -10 11 -10 2 0 4 5 4 10 0 6 -5 10 -11 10 -5 0
-7 -4 -4 -10z"/>
<path d="M3012 3725 c-5 -10 -7 -26 -4 -37 3 -14 0 -17 -12 -12 -21 8 -21 -5
0 -21 18 -12 46 -139 38 -167 -3 -9 -1 -19 4 -22 9 -5 47 62 44 76 -1 4 9 10
22 14 50 12 38 49 -16 49 -20 0 -28 -5 -28 -17 0 -10 -5 -18 -11 -18 -7 0 -9
10 -5 26 5 17 1 35 -10 51 -13 22 -14 29 -3 49 16 30 -2 58 -19 29z"/>
<path d="M3210 3730 c0 -5 5 -10 10 -10 6 0 10 5 10 10 0 6 -4 10 -10 10 -5 0
-10 -4 -10 -10z"/>
<path d="M3120 3726 c0 -2 7 -6 15 -10 8 -3 15 -1 15 4 0 6 -7 10 -15 10 -8 0
-15 -2 -15 -4z"/>
<path d="M1628 3673 c-7 -25 -1 -33 21 -33 11 0 12 3 5 8 -7 4 -14 16 -16 27
-4 19 -4 19 -10 -2z"/>
<path d="M4315 3680 c-4 -6 9 -10 32 -10 28 0 34 3 23 10 -20 13 -47 13 -55 0z"/>
<path d="M4330 3640 c-13 -8 -13 -10 2 -10 9 0 20 5 23 10 8 13 -5 13 -25 0z"/>
<path d="M2967 3633 c-4 -3 -7 -11 -7 -17 0 -6 5 -5 12 2 6 6 9 14 7 17 -3 3
-9 2 -12 -2z"/>
<path d="M3254 3611 c0 -11 4 -17 8 -15 4 3 8 -4 8 -15 0 -11 3 -22 8 -24 6
-4 8 27 3 63 -2 19 -27 10 -27 -9z"/>
<path d="M3781 3621 c-10 -6 -10 -10 -1 -16 13 -8 24 -1 19 14 -3 6 -10 7 -18
2z"/>
<path d="M3833 3605 c-7 -8 -13 -16 -13 -19 0 -6 23 -2 38 7 6 5 12 12 12 18
0 14 -23 10 -37 -6z"/>
<path d="M3933 3606 c-25 -12 -32 -39 -8 -30 10 4 15 0 15 -12 0 -24 9 -13 20
25 9 33 7 35 -27 17z"/>
<path d="M3730 3600 c0 -5 5 -10 11 -10 5 0 7 5 4 10 -3 6 -8 10 -11 10 -2 0
-4 -4 -4 -10z"/>
<path d="M4105 3570 c3 -5 8 -10 11 -10 2 0 4 5 4 10 0 6 -5 10 -11 10 -5 0
-7 -4 -4 -10z"/>
<path d="M3692 3537 c-1 -14 3 -17 16 -11 9 4 29 8 45 8 27 1 39 15 15 17 -60
6 -74 3 -76 -14z"/>
<path d="M3230 3537 c0 -8 7 -18 16 -21 11 -4 14 -1 12 11 -4 21 -28 30 -28
10z"/>
<path d="M3593 3533 c-4 -10 -11 -21 -17 -25 -6 -4 -7 -10 -3 -14 6 -7 46 34
47 49 0 14 -21 7 -27 -10z"/>
<path d="M3305 3529 c6 -9 4 -11 -8 -6 -8 3 -17 0 -20 -6 -3 -8 7 -12 29 -12
39 0 43 9 13 26 -17 9 -20 8 -14 -2z"/>
<path d="M3794 3516 c1 -12 -9 -25 -24 -33 -14 -7 -19 -13 -12 -13 6 0 12 -7
12 -15 0 -17 17 -20 22 -4 2 5 12 11 22 13 13 2 19 13 22 39 3 33 1 36 -20 35
-15 -1 -22 -8 -22 -22z"/>
<path d="M3938 3522 c-29 -11 -38 -20 -38 -38 0 -17 -4 -22 -15 -18 -11 5 -15
-1 -15 -19 0 -28 16 -45 23 -25 3 10 8 10 21 -1 22 -18 32 -5 31 41 0 25 6 36
25 46 13 7 32 11 42 9 10 -3 18 -1 18 4 0 5 -3 10 -7 10 -33 6 -53 4 -85 -9z"/>
<path d="M3126 3513 c-6 -14 -5 -15 5 -6 7 7 10 15 7 18 -3 3 -9 -2 -12 -12z"/>
<path d="M3150 3513 c0 -13 -6 -23 -13 -23 -21 0 -57 -47 -57 -74 0 -13 -6
-29 -14 -35 -17 -14 -9 -55 15 -77 10 -9 19 -23 19 -31 0 -7 9 -22 20 -33 11
-11 15 -20 9 -20 -8 0 -10 -15 -5 -47 6 -46 6 -46 -15 -27 -16 15 -22 16 -29
5 -10 -17 -2 -41 13 -38 6 1 12 -7 14 -18 3 -15 2 -17 -5 -6 -13 18 -24 0 -29
-50 -5 -38 12 -69 36 -69 11 0 9 -19 -6 -72 -2 -10 -9 -18 -14 -18 -5 0 -9 -8
-9 -17 0 -9 -8 -25 -17 -35 -10 -11 -17 -36 -18 -56 0 -22 -5 -36 -11 -35 -9
2 -9 -7 -1 -32 9 -30 14 -34 34 -29 17 5 23 2 23 -10 0 -9 -7 -16 -15 -16 -10
0 -15 -9 -14 -27 l0 -28 15 22 c16 22 16 22 36 3 12 -11 26 -17 31 -13 6 3 2
12 -8 20 -17 12 -17 13 -2 13 10 0 22 12 28 28 6 15 15 35 20 44 5 10 9 24 9
32 0 8 5 16 11 18 9 3 16 44 23 128 5 55 18 88 40 98 20 9 24 20 28 73 3 45 9
65 23 75 10 8 15 14 9 14 -5 0 -2 5 6 10 8 5 10 10 5 10 -11 0 -8 148 4 165 6
8 7 98 2 140 -1 14 -71 13 -71 -1 0 -15 -28 -26 -35 -14 -4 6 1 10 9 10 9 0
16 5 16 10 0 15 -16 12 -31 -6 -11 -13 -10 -17 4 -25 19 -11 23 -50 5 -46 -7
1 -20 18 -29 37 -10 19 -18 30 -18 23 -1 -15 -41 -4 -41 11 0 7 4 16 10 22 6
6 6 15 0 24 -8 12 -10 10 -10 -7z m130 -73 c-8 -5 -17 -7 -19 -4 -3 3 1 9 9
14 8 5 17 7 19 4 3 -3 -1 -9 -9 -14z m-95 -40 c-3 -5 -11 -10 -16 -10 -6 0 -7
5 -4 10 3 6 11 10 16 10 6 0 7 -4 4 -10z m22 -42 c-3 -8 -6 -5 -6 6 -1 11 2
17 5 13 3 -3 4 -12 1 -19z"/>
<path d="M3180 3510 c0 -5 5 -10 11 -10 5 0 7 5 4 10 -3 6 -8 10 -11 10 -2 0
-4 -4 -4 -10z"/>
<path d="M3210 3510 c0 -5 5 -10 11 -10 5 0 7 5 4 10 -3 6 -8 10 -11 10 -2 0
-4 -4 -4 -10z"/>
<path d="M3677 3494 c3 -10 -4 -12 -26 -9 -32 4 -42 -8 -15 -19 10 -4 14 -13
10 -28 -4 -16 -2 -15 7 5 l14 28 16 -23 16 -23 0 28 c1 25 3 27 22 17 18 -10
19 -10 10 8 -6 11 -9 21 -7 23 3 2 -8 4 -24 5 -20 1 -27 -3 -23 -12z"/>
<path d="M3505 3490 c-3 -5 -1 -10 4 -10 6 0 11 5 11 10 0 6 -2 10 -4 10 -3 0
-8 -4 -11 -10z"/>
<path d="M3165 3480 c-3 -5 -1 -10 4 -10 6 0 11 5 11 10 0 6 -2 10 -4 10 -3 0
-8 -4 -11 -10z"/>
<path d="M5206 3467 c3 -10 9 -15 12 -12 3 3 0 11 -7 18 -10 9 -11 8 -5 -6z"/>
<path d="M3470 3449 c0 -5 5 -7 10 -4 6 3 10 8 10 11 0 2 -4 4 -10 4 -5 0 -10
-5 -10 -11z"/>
<path d="M3420 3425 c0 -8 2 -15 4 -15 2 0 6 7 10 15 3 8 1 15 -4 15 -6 0 -10
-7 -10 -15z"/>
<path d="M3750 3420 c0 -5 5 -10 10 -10 6 0 10 5 10 10 0 6 -4 10 -10 10 -5 0
-10 -4 -10 -10z"/>
<path d="M3836 3412 c-7 -12 22 -38 31 -28 4 3 0 14 -9 22 -9 10 -18 12 -22 6z"/>
<path d="M3476 3384 c-9 -8 -16 -12 -16 -8 0 4 -8 0 -17 -9 -10 -8 -22 -16
-28 -17 -16 -3 -20 -10 -6 -10 18 0 91 42 91 52 0 12 -7 10 -24 -8z"/>
<path d="M3535 3390 c4 -6 11 -8 16 -5 5 4 9 2 9 -4 0 -5 15 -9 33 -9 l32 1
-30 13 c-36 16 -69 18 -60 4z"/>
<path d="M3630 3381 c0 -12 28 -22 35 -12 3 5 -2 12 -11 15 -21 8 -24 8 -24
-3z"/>
<path d="M3715 3376 c-18 -13 -18 -14 8 -9 15 3 27 9 27 14 0 13 -13 11 -35
-5z"/>
<path d="M3793 3373 c-21 -8 -15 -22 7 -16 11 3 20 9 20 14 0 10 -8 10 -27 2z"/>
<path d="M3840 3339 c0 -5 11 -9 25 -9 14 0 25 2 25 4 0 2 -11 6 -25 8 -14 3
-25 1 -25 -3z"/>
<path d="M3360 3311 c0 -5 -3 -18 -6 -28 -6 -16 -5 -16 9 2 19 23 21 35 7 35
-5 0 -10 -4 -10 -9z"/>
<path d="M3980 3229 c0 -5 5 -7 10 -4 6 3 10 8 10 11 0 2 -4 4 -10 4 -5 0 -10
-5 -10 -11z"/>
<path d="M4100 3190 c0 -5 7 -10 15 -10 8 0 15 5 15 10 0 6 -7 10 -15 10 -8 0
-15 -4 -15 -10z"/>
<path d="M4055 3120 c3 -5 8 -10 11 -10 2 0 4 5 4 10 0 6 -5 10 -11 10 -5 0
-7 -4 -4 -10z"/>
<path d="M4110 3060 c14 -11 21 -20 15 -20 -5 0 -3 -5 5 -10 13 -9 13 -10 0
-10 -8 0 -24 -8 -35 -17 -15 -11 -15 -14 -3 -10 9 3 24 -3 34 -14 9 -10 23
-19 31 -19 7 0 13 -5 13 -11 0 -5 5 -7 10 -4 6 3 10 19 10 34 0 32 -60 101
-88 101 -13 0 -12 -5 8 -20z"/>
<path d="M1830 2981 c0 -6 5 -13 10 -16 6 -3 10 1 10 9 0 9 -4 16 -10 16 -5 0
-10 -4 -10 -9z"/>
<path d="M2262 2970 c0 -14 2 -19 5 -12 2 6 2 18 0 25 -3 6 -5 1 -5 -13z"/>
<path d="M3075 2937 c-5 -17 -3 -33 3 -39 16 -16 27 18 14 45 -10 22 -10 21
-17 -6z"/>
<path d="M4198 2925 c-2 -19 0 -35 4 -35 4 0 8 16 8 35 0 19 -2 35 -4 35 -2 0
-6 -16 -8 -35z"/>
<path d="M4041 2844 c0 -11 3 -14 6 -6 3 7 2 16 -1 19 -3 4 -6 -2 -5 -13z"/>
<path d="M4204 2772 c-11 -19 -7 -52 6 -52 13 0 22 38 13 55 -7 12 -10 12 -19
-3z"/>
<path d="M4453 2766 c3 -7 1 -18 -5 -24 -6 -6 -6 -12 -1 -15 5 -3 21 7 35 24
l26 29 -30 0 c-21 0 -29 -4 -25 -14z"/>
<path d="M1497 2731 c-4 -17 -2 -18 14 -8 22 14 25 27 5 27 -7 0 -16 -9 -19
-19z"/>
<path d="M4410 2741 c0 -9 -42 -21 -154 -44 -47 -10 -61 -17 -67 -36 -7 -18
-6 -22 4 -18 8 3 14 -1 14 -9 0 -8 -6 -14 -14 -14 -7 0 -13 -7 -13 -15 0 -14
3 -13 24 2 13 10 24 28 24 41 0 29 1 30 40 38 24 5 33 3 38 -10 4 -10 1 -23
-5 -29 -9 -9 -11 -8 -6 6 10 24 -17 22 -40 -3 -10 -11 -14 -20 -10 -20 5 0 -2
-12 -16 -26 -22 -24 -23 -26 -6 -38 9 -7 17 -20 17 -28 0 -18 -24 -41 -33 -31
-4 3 -7 1 -7 -5 0 -7 6 -12 13 -13 6 0 2 -4 -9 -9 -21 -8 -40 -50 -23 -50 5 0
9 -7 9 -15 0 -11 -8 -15 -22 -13 -13 2 -25 -1 -28 -7 -6 -11 41 -17 56 -7 5 4
18 24 29 45 11 20 23 37 27 37 5 0 6 11 2 24 -3 13 -1 27 5 30 5 4 8 13 5 20
-6 16 11 29 41 33 11 1 14 -1 8 -3 -8 -4 -11 -16 -7 -32 5 -22 3 -24 -6 -12
-9 12 -10 10 -6 -12 4 -18 2 -28 -5 -28 -7 0 -10 -13 -7 -35 3 -30 1 -35 -14
-33 -9 2 -17 -1 -17 -6 1 -5 -3 -12 -8 -15 -4 -3 -15 -15 -23 -26 -15 -19 -15
-19 12 -2 15 9 36 17 48 17 15 0 20 7 20 28 1 15 7 38 15 52 8 14 14 37 15 51
0 14 9 34 19 43 11 10 23 31 26 47 4 16 13 29 21 29 12 0 12 4 2 20 -11 17
-10 22 10 35 23 17 29 40 12 50 -5 3 -10 2 -10 -4z m-30 -61 c0 -13 -7 -20
-20 -20 -11 0 -20 -4 -20 -10 0 -5 5 -10 12 -10 6 0 1 -9 -12 -20 -25 -22 -52
-28 -32 -8 7 7 12 21 12 31 0 17 36 56 53 57 4 0 7 -9 7 -20z m-116 -77 c-3
-12 -14 -23 -25 -26 -20 -5 -17 4 10 33 20 21 22 20 15 -7z"/>
<path d="M3895 2719 c-4 -6 -5 -12 -2 -15 2 -3 7 2 10 11 7 17 1 20 -8 4z"/>
<path d="M2240 2672 c0 -14 11 -21 26 -15 8 3 11 9 8 14 -7 11 -34 12 -34 1z"/>
<path d="M1516 2654 c-4 -9 -4 -19 -2 -22 10 -9 36 8 36 23 0 20 -26 19 -34
-1z"/>
<path d="M2115 2630 c-3 -5 1 -10 10 -10 9 0 13 5 10 10 -3 6 -8 10 -10 10 -2
0 -7 -4 -10 -10z"/>
<path d="M2285 2607 c8 -14 12 -34 9 -52 -3 -16 -2 -27 1 -23 15 15 16 69 1
83 -22 22 -28 18 -11 -8z"/>
<path d="M4135 2619 c-9 -14 -2 -20 14 -10 8 6 9 11 3 15 -6 3 -14 1 -17 -5z"/>
<path d="M2125 2600 c3 -5 8 -10 11 -10 2 0 4 5 4 10 0 6 -5 10 -11 10 -5 0
-7 -4 -4 -10z"/>
<path d="M2000 2591 c0 -5 5 -13 10 -16 6 -3 10 -2 10 4 0 5 -4 13 -10 16 -5
3 -10 2 -10 -4z"/>
<path d="M2153 2578 c-1 -34 18 -91 27 -81 10 9 -8 103 -19 103 -4 0 -7 -10
-8 -22z"/>
<path d="M2255 2568 c4 -13 9 -40 12 -60 3 -21 9 -38 14 -38 5 0 9 -7 9 -17 0
-9 3 -14 6 -10 7 7 -33 147 -42 147 -4 0 -3 -10 1 -22z"/>
<path d="M3055 2570 c-10 -31 -8 -106 3 -126 8 -14 11 -11 21 16 15 44 14 91
-3 113 -14 18 -15 17 -21 -3z"/>
<path d="M3847 2583 c-4 -3 -7 -11 -7 -17 0 -6 5 -5 12 2 6 6 9 14 7 17 -3 3
-9 2 -12 -2z"/>
<path d="M2045 2520 c1 -17 -6 -38 -17 -49 -19 -22 -24 -41 -9 -41 5 0 13 9
16 20 7 22 25 27 25 8 0 -8 3 -9 8 -3 9 13 55 18 47 5 -3 -6 -1 -10 4 -10 6 0
11 5 11 11 0 6 6 9 14 6 21 -8 27 3 11 20 -11 10 -19 11 -34 4 -28 -15 -51 -3
-58 30 -7 38 -20 37 -18 -1z"/>
<path d="M1897 2526 c-6 -15 1 -26 15 -26 11 0 10 27 -1 34 -5 3 -11 0 -14 -8z"/>
<path d="M1534 2521 c4 -5 0 -11 -6 -14 -7 -2 -10 -8 -6 -12 10 -10 40 14 32
26 -3 5 -10 9 -15 9 -6 0 -8 -4 -5 -9z"/>
<path d="M2223 2519 c-13 -5 -23 -15 -23 -24 0 -18 1 -18 33 -2 31 16 22 38
-10 26z"/>
<path d="M3102 2510 c0 -14 2 -19 5 -12 2 6 2 18 0 25 -3 6 -5 1 -5 -13z"/>
<path d="M3810 2509 c0 -5 5 -7 10 -4 6 3 10 8 10 11 0 2 -4 4 -10 4 -5 0 -10
-5 -10 -11z"/>
<path d="M1807 2503 c-4 -3 -7 -13 -7 -22 1 -13 3 -13 11 2 11 19 8 33 -4 20z"/>
<path d="M3806 2482 c-3 -5 1 -9 9 -9 8 0 12 4 9 9 -3 4 -7 8 -9 8 -2 0 -6 -4
-9 -8z"/>
<path d="M1927 2440 c3 -34 1 -41 -18 -48 -16 -6 -19 -11 -10 -16 8 -5 24 3
43 20 21 20 32 25 35 16 6 -16 23 -5 23 14 0 8 -4 12 -10 9 -14 -9 -50 13 -50
30 0 8 -4 15 -8 15 -5 0 -7 -18 -5 -40z"/>
<path d="M1740 2420 c0 -5 5 -10 10 -10 6 0 10 5 10 10 0 6 -4 10 -10 10 -5 0
-10 -4 -10 -10z"/>
<path d="M1830 2420 c0 -5 5 -10 11 -10 5 0 7 5 4 10 -3 6 -8 10 -11 10 -2 0
-4 -4 -4 -10z"/>
<path d="M2305 2402 c5 -37 54 -145 54 -122 1 9 -5 25 -13 36 -8 11 -21 42
-30 69 -11 33 -15 39 -11 17z"/>
<path d="M3046 2394 c-8 -22 1 -31 16 -16 9 9 9 15 1 23 -7 7 -12 5 -17 -7z"/>
<path d="M1563 2380 c-7 -10 -9 -21 -4 -24 11 -7 43 28 34 37 -10 11 -17 8
-30 -13z"/>
<path d="M1835 2377 c-6 -13 -19 -22 -31 -21 -17 0 -21 -5 -20 -28 1 -33 7
-35 24 -8 7 11 21 20 31 20 22 0 34 35 17 49 -8 7 -15 3 -21 -12z"/>
<path d="M3980 2370 c19 -13 30 -13 30 0 0 6 -10 10 -22 10 -19 0 -20 -2 -8
-10z"/>
<path d="M1640 2335 c0 -8 5 -15 10 -15 6 0 10 7 10 15 0 8 -4 15 -10 15 -5 0
-10 -7 -10 -15z"/>
<path d="M3035 2320 c-9 -15 4 -50 20 -50 23 0 24 14 5 38 -11 13 -21 18 -25
12z"/>
<path d="M1615 2310 c-12 -19 -15 -60 -4 -60 10 0 23 44 17 62 -3 9 -6 9 -13
-2z"/>
<path d="M1730 2267 c0 -9 -8 -20 -17 -26 -10 -5 -16 -12 -13 -15 3 -2 16 4
30 14 20 15 23 21 13 31 -11 11 -13 10 -13 -4z"/>
<path d="M1670 2234 c0 -14 4 -23 10 -19 6 3 10 15 10 26 0 10 -4 19 -10 19
-5 0 -10 -12 -10 -26z"/>
<path d="M3750 2236 c0 -14 4 -27 8 -30 5 -3 6 8 4 25 -5 35 -12 38 -12 5z"/>
<path d="M3783 2253 c-21 -8 -15 -22 7 -16 11 3 20 9 20 14 0 10 -8 10 -27 2z"/>
<path d="M3000 2208 c0 -7 6 -33 13 -57 10 -33 15 -40 20 -26 9 21 -10 95 -23
95 -6 0 -10 -6 -10 -12z"/>
<path d="M3706 2141 c-5 -13 -4 -27 3 -34 16 -16 21 -4 12 29 -8 29 -8 29 -15
5z"/>
<path d="M4146 2142 c-3 -6 -3 -17 0 -26 3 -9 1 -23 -6 -31 -10 -12 -10 -15 1
-15 9 -1 6 -7 -8 -19 -12 -10 -21 -26 -20 -37 1 -12 -4 -19 -15 -18 -10 1 -16
-2 -13 -6 3 -5 -1 -11 -7 -14 -7 -3 0 -2 16 1 20 4 27 2 22 -5 -5 -8 -2 -10 8
-6 9 3 16 15 16 25 0 11 9 30 20 41 16 18 19 30 14 63 -6 43 -18 63 -28 47z"/>
<path d="M4096 2093 c-6 -14 -5 -15 5 -6 7 7 10 15 7 18 -3 3 -9 -2 -12 -12z"/>
<path d="M4166 1984 c-5 -14 -4 -15 9 -4 17 14 19 20 6 20 -5 0 -12 -7 -15
-16z"/>
<path d="M4272 1965 c-4 -9 -18 -17 -30 -18 -15 -1 -18 -4 -11 -13 6 -7 17
-10 25 -7 17 6 18 -9 2 -25 -9 -9 -9 -12 3 -12 9 0 5 -7 -11 -19 -20 -16 -22
-21 -11 -35 14 -17 11 -19 -31 -16 -42 2 -41 -16 1 -30 47 -15 61 -8 61 31 0
17 6 32 14 35 11 4 15 22 14 65 -1 59 -9 73 -26 44z"/>
<path d="M4358 1960 c-16 -9 -26 -19 -23 -22 8 -8 54 3 61 14 12 20 -12 25
-38 8z"/>
<path d="M5400 1811 c0 -12 -9 -21 -25 -25 -14 -4 -25 -11 -25 -16 0 -5 12 -5
30 1 22 8 30 17 30 35 0 13 -2 24 -5 24 -3 0 -5 -9 -5 -19z"/>
<path d="M4100 1800 c-19 -4 -30 -8 -25 -10 20 -5 30 -7 40 -8 14 -3 -31 -32
-56 -37 -27 -5 -38 -15 -16 -15 24 0 32 -22 13 -36 -22 -15 -13 -50 13 -57 36
-9 57 43 29 71 -10 10 -4 20 26 47 21 18 35 38 31 44 -3 6 -9 10 -13 10 -4 -1
-23 -5 -42 -9z"/>
<path d="M3993 1793 c9 -2 17 -8 17 -13 0 -5 8 -6 17 -3 15 6 15 7 -3 14 -10
4 -26 7 -34 7 -10 0 -9 -2 3 -5z"/>
<path d="M4180 1755 c-8 -9 -21 -13 -34 -10 -13 4 -10 0 9 -11 l29 -17 -22
-15 c-27 -18 -28 -32 -2 -32 10 0 23 -8 29 -17 9 -17 10 -17 17 0 3 10 4 33 1
52 -3 19 -2 35 3 35 4 0 10 7 14 15 7 20 -27 20 -44 0z"/>
<path d="M4120 1710 c0 -5 5 -10 10 -10 6 0 10 5 10 10 0 6 -4 10 -10 10 -5 0
-10 -4 -10 -10z"/>
<path d="M5126 1694 c-9 -9 -15 -19 -12 -21 3 -3 13 2 22 11 9 9 14 19 11 22
-2 3 -12 -3 -21 -12z"/>
<path d="M4140 1634 c-19 -7 -44 -13 -54 -13 -20 -1 -13 -16 7 -16 7 -1 11 -6
10 -12 -1 -5 9 -9 22 -8 31 4 47 14 39 26 -3 5 0 16 6 24 7 8 11 14 9 14 -2
-1 -20 -7 -39 -15z"/>
<path d="M4844 1626 c-11 -23 -10 -24 12 -14 13 6 24 17 24 25 0 22 -24 15
-36 -11z"/>
<path d="M4000 1630 c-13 -8 -12 -10 3 -10 9 0 17 5 17 10 0 12 -1 12 -20 0z"/>
<path d="M4245 1630 c-3 -5 1 -10 9 -10 9 0 16 5 16 10 0 6 -4 10 -9 10 -6 0
-13 -4 -16 -10z"/>
<path d="M4190 1620 c0 -5 5 -10 11 -10 5 0 7 5 4 10 -3 6 -8 10 -11 10 -2 0
-4 -4 -4 -10z"/>
<path d="M4700 1589 c0 -5 5 -7 10 -4 6 3 10 8 10 11 0 2 -4 4 -10 4 -5 0 -10
-5 -10 -11z"/>
<path d="M3667 1508 c-8 -30 -6 -31 28 -3 l30 24 -26 1 c-19 0 -28 -6 -32 -22z"/>
<path d="M4555 1472 c-16 -8 -32 -19 -33 -24 -2 -4 -8 -6 -13 -2 -5 3 -23 -2
-41 -10 -17 -9 -38 -16 -46 -16 -9 0 -24 -7 -34 -16 -15 -14 -20 -15 -33 -4
-14 11 -17 10 -22 -8 -3 -12 -10 -22 -15 -22 -5 0 -6 5 -3 10 3 6 0 10 -8 10
-8 0 -22 -21 -32 -47 -10 -27 -25 -53 -33 -59 -11 -8 -12 -13 -4 -18 9 -5 8
-13 -3 -30 -11 -17 -22 -22 -44 -18 -29 4 -29 4 -25 -39 2 -24 9 -45 14 -47 6
-2 10 -14 10 -27 0 -22 40 -81 67 -98 7 -4 13 -15 13 -23 0 -8 4 -13 10 -9 6
4 6 15 0 31 -13 34 -13 37 4 31 19 -8 22 6 21 80 -1 48 2 64 14 68 14 6 13 9
-4 22 -12 9 -14 13 -5 11 8 -3 21 2 28 11 14 17 13 8 -3 -61 -5 -20 -2 -23 25
-25 19 -1 28 2 24 8 -3 5 4 18 15 28 12 10 21 28 21 40 0 28 18 27 30 -1 6
-15 9 -18 9 -7 1 13 12 16 49 16 53 -1 64 -10 51 -44 -5 -14 -5 -23 1 -23 6 0
10 5 10 10 0 6 6 10 14 10 10 0 13 8 10 27 -3 15 -9 30 -13 33 -12 7 -29 72
-24 88 3 6 0 12 -6 12 -6 0 -10 17 -8 40 2 45 1 44 30 29 l22 -12 -23 25 -22
25 25 13 c14 7 25 17 25 22 0 11 -9 9 -45 -10z m-270 -382 c3 -5 1 -10 -4 -10
-6 0 -11 5 -11 10 0 6 2 10 4 10 3 0 8 -4 11 -10z"/>
<path d="M3590 1460 c0 -5 5 -10 10 -10 6 0 10 5 10 10 0 6 -4 10 -10 10 -5 0
-10 -4 -10 -10z"/>
<path d="M2765 1269 c-4 -6 -5 -12 -2 -15 2 -3 7 2 10 11 7 17 1 20 -8 4z"/>
<path d="M4210 1260 c0 -5 5 -10 11 -10 5 0 7 5 4 10 -3 6 -8 10 -11 10 -2 0
-4 -4 -4 -10z"/>
<path d="M4487 1196 c-4 -10 -1 -16 9 -16 10 0 14 -6 10 -15 -3 -10 1 -15 13
-15 14 0 18 7 17 25 0 14 -4 25 -8 25 -3 0 -13 3 -21 6 -8 3 -17 -2 -20 -10z"/>
<path d="M4607 1187 c-11 -29 -9 -43 4 -30 6 6 9 19 7 29 -3 18 -4 18 -11 1z"/>
<path d="M4140 1167 c0 -15 4 -27 8 -27 10 0 9 36 -1 46 -4 4 -7 -5 -7 -19z"/>
<path d="M4417 1183 c-12 -11 -8 -55 4 -47 6 3 15 0 20 -7 6 -9 8 -1 6 23 -2
35 -14 48 -30 31z"/>
<path d="M4610 1129 c0 -6 -9 -9 -20 -6 -11 3 -18 1 -14 -4 3 -5 11 -9 19 -9
7 0 16 -12 19 -26 5 -20 10 -24 18 -16 8 8 8 15 -1 25 -6 8 -9 22 -5 31 3 9 1
16 -5 16 -6 0 -11 -5 -11 -11z"/>
<path d="M4157 1096 c-21 -16 -22 -26 -3 -26 8 0 17 7 20 16 9 23 4 25 -17 10z"/>
<path d="M4100 970 c0 -5 7 -7 15 -4 8 4 15 8 15 10 0 2 -7 4 -15 4 -8 0 -15
-4 -15 -10z"/>
<path d="M4276 945 c4 -8 12 -15 20 -15 8 0 11 6 8 15 -4 8 -12 15 -20 15 -8
0 -11 -6 -8 -15z"/>
<path d="M4260 890 c0 -11 4 -20 9 -20 5 0 11 9 14 20 3 13 0 20 -9 20 -8 0
-14 -9 -14 -20z"/>
<path d="M4291 863 c-1 -7 -7 -13 -15 -13 -13 0 -19 -23 -28 -102 -1 -10 -6
-18 -10 -18 -5 0 -13 -11 -18 -24 -5 -13 -23 -40 -39 -59 -26 -29 -43 -37 -96
-48 -71 -14 -91 -39 -27 -33 75 7 181 28 176 35 -2 4 9 10 26 14 17 4 30 13
30 21 0 9 5 12 10 9 6 -3 10 1 10 10 0 9 5 13 10 10 6 -4 17 -2 24 4 7 6 39
13 72 17 65 7 124 27 124 43 0 13 -16 13 -99 1 -35 -5 -77 -6 -94 -3 -27 5
-29 9 -24 39 3 18 2 35 -1 39 -4 3 -12 21 -19 38 -6 18 -12 26 -12 20z"/>
<path d="M2675 840 c-3 -5 -2 -10 4 -10 5 0 13 5 16 10 3 6 2 10 -4 10 -5 0
-13 -4 -16 -10z"/>
<path d="M2630 831 c0 -11 59 -26 67 -17 4 3 -3 6 -15 6 -11 0 -24 5 -27 10
-8 13 -25 13 -25 1z"/>
<path d="M2585 790 c4 -6 11 -8 16 -5 14 9 11 15 -7 15 -8 0 -12 -5 -9 -10z"/>
</g>
</svg>
